<svg width="20" height="20" viewBox="0 0 20 20" fill="none" xmlns="http://www.w3.org/2000/svg">
<path d="M9.49936 4.14145C9.39495 3.45394 9.18383 2.75801 8.8763 2.078C7.27929 2.30257 5.83379 2.99847 4.68481 4.02079L8.6542 7.99021C9.42974 7.00392 9.72949 5.6568 9.49936 4.14145Z" fill="#041578"/>
<path d="M8.65815 9.31921C7.71014 10.102 6.49045 10.5109 5.1201 10.5109C4.75704 10.5109 4.38354 10.4822 4.0016 10.4243C3.33435 10.3229 2.66175 10.1328 2.00169 9.86162C2.00097 9.90709 2 9.95253 2 9.99818C2 12.0387 2.76435 13.9003 4.02176 15.3135L9.33712 9.99818L8.65815 9.31921Z" fill="#041578"/>
<path d="M7.99107 8.65176L4.02165 4.68237C2.99933 5.83135 2.30342 7.27682 2.07886 8.87382C2.75889 9.18136 3.45486 9.39254 4.14227 9.49695C5.65771 9.72711 7.00481 9.42729 7.99107 8.65176Z" fill="#041578"/>
<path d="M15.8578 10.4994C14.3424 10.2692 12.9953 10.569 12.009 11.3445L15.9784 15.314C17.0007 14.1649 17.6966 12.7195 17.9212 11.1225C17.2413 10.815 16.5453 10.6038 15.8578 10.4994Z" fill="#041578"/>
<path d="M10.679 11.3408L10.0002 10.662L4.68481 15.9773C6.09804 17.2348 7.9597 17.9991 10.0002 17.9991C10.0458 17.9991 10.0913 17.9981 10.1367 17.9974C9.86555 17.3373 9.67542 16.6647 9.57408 15.9975C9.2972 14.174 9.68886 12.5399 10.679 11.3408Z" fill="#041578"/>
<path d="M9.32117 8.65684L9.99998 9.33565L15.3153 4.02029C13.9021 2.76285 12.0405 1.99854 9.99998 1.99854C9.95433 1.99854 9.90889 1.9995 9.86342 2.00025C10.1346 2.66029 10.3247 3.33282 10.4261 4.00017C10.703 5.82364 10.3113 7.45771 9.32117 8.65684Z" fill="#041578"/>
<path d="M10.5006 15.8561C10.6049 16.5435 10.8162 17.2395 11.1237 17.9195C12.7207 17.695 14.1661 16.9991 15.3151 15.9767L11.3457 12.0073C10.5702 12.9936 10.2704 14.3407 10.5006 15.8561Z" fill="#041578"/>
<path d="M11.3421 10.6766C12.5413 9.68642 14.1753 9.29479 15.9988 9.57167C16.6662 9.67301 17.3387 9.86317 17.9987 10.1343C17.9995 10.0889 18.0004 10.0434 18.0004 9.99773C18.0004 7.95726 17.2361 6.0956 15.9787 4.68237L10.6633 9.99777L11.3421 10.6766Z" fill="#041578"/>
</svg>
