<svg width="20" height="20" viewBox="0 0 20 20" fill="none" xmlns="http://www.w3.org/2000/svg">
<path d="M17.1146 15.1235L10.8407 8.84953L3.51069 1.51953H2.93785L2.82088 1.81675C2.51216 2.60125 2.38026 3.40363 2.43947 4.13703C2.50697 4.97303 2.82457 5.69681 3.35797 6.23022L9.08016 11.9524L9.83491 11.1977L15.1251 17.1131C15.6513 17.6393 16.5571 17.6706 17.1146 17.1131C17.6632 16.5645 17.6632 15.672 17.1146 15.1235Z" fill="#041578"/>
<path d="M6.42837 10.6278L1.94678 15.1094C1.39828 15.6579 1.39828 16.5504 1.94678 17.0989C2.46784 17.62 3.36924 17.666 3.93631 17.0989L8.41793 12.6173L6.42837 10.6278Z" fill="#041578"/>
<path d="M16.8511 4.18327L14.3089 6.72545L13.6457 6.06227L16.1879 3.52005L15.5247 2.85686L12.9825 5.39905L12.3193 4.73586L14.8615 2.19367L14.1984 1.53052L10.8824 4.84645C10.4768 5.25211 10.2346 5.79074 10.2003 6.36317C10.1917 6.5082 10.1588 6.65086 10.1042 6.78655L12.2583 8.94058C12.394 8.88599 12.5367 8.85314 12.6817 8.84449C13.2541 8.81033 13.7927 8.56805 14.1984 8.16239L17.5143 4.84649L16.8511 4.18327Z" fill="#041578"/>
</svg>
