<svg width="24" height="24" viewBox="0 0 24 24" fill="none" xmlns="http://www.w3.org/2000/svg">
<g clip-path="url(#clip0_1820_43128)">
<path d="M21.6111 12H15.3889C15.1763 12 15 11.7733 15 11.5C15 11.2267 15.1763 11 15.3889 11H21.6111C21.8237 11 22 11.2267 22 11.5C22 11.7733 21.8237 12 21.6111 12Z" fill="#041578"/>
<path d="M11.421 14.0296C11.0283 15.1133 10.6352 16.1968 10.2403 17.2799C10.1752 17.4601 10.1432 17.6392 10.1432 17.829C10.1445 18.303 10.1444 18.7774 10.1444 19.2517C10.1444 19.726 10.1444 20.2003 10.1457 20.6744C10.1457 20.7498 10.1553 20.8259 10.1648 20.9017C10.1689 20.9345 10.1731 20.9673 10.1764 21M10.1764 21L10.6021 20.9565L10.721 21V20.6088L10.8464 20.6575L10.721 20.6084V20.5H10.6453C10.6448 20.2658 10.6446 20.0314 10.6445 19.797C10.5565 20.0232 10.4686 20.2494 10.3806 20.4757C10.3775 20.4837 10.3743 20.4918 10.3712 20.5H10.1764V20.6743V20.6744V21Z" fill="#041578" stroke="#292D32"/>
<path d="M18.5 15C18.2267 15 18 14.8237 18 14.6111V8.38889C18 8.1763 18.2267 8 18.5 8C18.7733 8 19 8.1763 19 8.38889V14.6111C19 14.8237 18.7733 15 18.5 15Z" fill="#041578"/>
</g>
<defs>
<clipPath id="clip0_1820_43128">
<rect width="24" height="24" fill="white"/>
</clipPath>
</defs>
</svg>
