<svg width="42" height="42" viewBox="0 0 42 42" fill="none" xmlns="http://www.w3.org/2000/svg">
<path d="M37.419 21.0003H26.7894C26.4262 21.0003 26.125 20.6131 26.125 20.1462C26.125 19.6792 26.4262 19.292 26.7894 19.292H37.419C37.7822 19.292 38.0833 19.6792 38.0833 20.1462C38.0833 20.6131 37.7822 21.0003 37.419 21.0003Z" fill="#E6E8F2"/>
<path d="M17.8847 36.3747C17.8658 36.1899 17.8322 36.0031 17.8322 35.8184C17.828 34.1988 17.8322 32.5772 17.828 30.9576C17.828 30.6333 17.8826 30.3274 17.9939 30.0195C19.1447 26.8624 20.2872 23.7033 21.4317 20.5442C21.5199 20.302 21.5976 20.0557 21.6459 19.795C20.9886 20.8542 20.409 21.9524 19.8146 23.0424C19.2077 24.157 18.5987 25.2695 17.9918 26.3821C17.3932 27.4782 16.7926 28.5723 16.1899 29.6767C15.9316 29.7321 15.688 29.7301 15.4171 29.6767C15.3477 29.5043 15.2721 29.3339 15.207 29.1594C13.6236 24.9555 12.0422 20.7495 10.4503 16.5476C10.3222 16.2068 10.2403 15.8682 10.2424 15.5048C10.2445 15.2031 10.2172 14.9034 10.2046 14.6016C10.1962 14.4005 10.1059 14.2547 9.93162 14.1336C9.4465 13.7908 8.97399 13.4336 8.49517 13.0826C7.09231 12.0522 5.69154 11.0197 4.28868 9.98715C4.19628 9.91941 4.11228 9.84346 3.99468 9.74699C3.99468 8.9998 3.91066 8.2362 3.91696 7.47054C3.99887 7.43975 4.05137 7.40896 4.10387 7.40485C4.23828 7.39459 4.37268 7.39459 4.50919 7.39459C7.86723 7.38433 11.2232 7.37201 14.5812 7.3638C20.4468 7.35148 26.3123 7.34327 32.1779 7.33301C32.4068 7.33301 32.6357 7.34122 32.852 7.34532C32.9675 7.74765 32.9927 8.90743 32.9087 9.81883C30.901 11.2968 28.8702 12.7932 26.8079 14.3122C26.7785 14.7494 26.7365 15.1969 26.7218 15.6465C26.7113 15.9544 26.6357 16.2376 26.5265 16.5209C24.0253 22.9438 21.5262 29.3667 19.0292 35.7896C18.9536 35.9826 18.8864 36.1797 18.815 36.3747H17.8847Z" fill="#E6E8F2"/>
<path d="M32.1042 26.1253C31.6372 26.1253 31.25 25.8242 31.25 25.461V14.8313C31.25 14.4682 31.6372 14.167 32.1042 14.167C32.5711 14.167 32.9583 14.4682 32.9583 14.8313V25.461C32.9583 25.8242 32.5711 26.1253 32.1042 26.1253Z" fill="#E6E8F2"/>
</svg>
