<svg width="16" height="17" viewBox="0 0 16 17" fill="none" xmlns="http://www.w3.org/2000/svg">
<path d="M9.61998 13.0467C9.49331 13.0467 9.36664 13.0001 9.26664 12.9001C9.07331 12.7067 9.07331 12.3867 9.26664 12.1934L12.96 8.50008L9.26664 4.80674C9.07331 4.61341 9.07331 4.29341 9.26664 4.10008C9.45998 3.90674 9.77998 3.90674 9.97331 4.10008L14.02 8.14674C14.2133 8.34008 14.2133 8.66008 14.02 8.85341L9.97331 12.9001C9.87331 13.0001 9.74664 13.0467 9.61998 13.0467Z" fill="#E6E8F2"/>
<path d="M13.5533 9H2.33331C2.05998 9 1.83331 8.77333 1.83331 8.5C1.83331 8.22667 2.05998 8 2.33331 8H13.5533C13.8266 8 14.0533 8.22667 14.0533 8.5C14.0533 8.77333 13.8266 9 13.5533 9Z" fill="#E6E8F2"/>
</svg>
