<svg width="20" height="20" viewBox="0 0 20 20" fill="none" xmlns="http://www.w3.org/2000/svg">
<path d="M12.5 18.9587H7.50002C2.97502 18.9587 1.04169 17.0253 1.04169 12.5003V7.50033C1.04169 2.97533 2.97502 1.04199 7.50002 1.04199H12.5C17.025 1.04199 18.9584 2.97533 18.9584 7.50033V12.5003C18.9584 17.0253 17.025 18.9587 12.5 18.9587ZM7.50002 2.29199C3.65835 2.29199 2.29169 3.65866 2.29169 7.50033V12.5003C2.29169 16.342 3.65835 17.7087 7.50002 17.7087H12.5C16.3417 17.7087 17.7084 16.342 17.7084 12.5003V7.50033C17.7084 3.65866 16.3417 2.29199 12.5 2.29199H7.50002Z" fill="#041578"/>
<path d="M7.23331 12.7749C6.88331 12.7749 6.55831 12.6915 6.27498 12.5332C5.58331 12.1415 5.20831 11.3665 5.20831 10.3499V2.0332C5.20831 1.69154 5.49165 1.4082 5.83331 1.4082C6.17498 1.4082 6.45831 1.69154 6.45831 2.0332V10.3499C6.45831 10.8915 6.61665 11.2915 6.89165 11.4415C7.18331 11.6082 7.63331 11.5249 8.12498 11.2332L9.22498 10.5749C9.67498 10.3082 10.3166 10.3082 10.7666 10.5749L11.8666 11.2332C12.3666 11.5332 12.8166 11.6082 13.1 11.4415C13.375 11.2832 13.5333 10.8832 13.5333 10.3499V2.0332C13.5333 1.69154 13.8166 1.4082 14.1583 1.4082C14.5 1.4082 14.7833 1.69154 14.7833 2.0332V10.3499C14.7833 11.3665 14.4083 12.1415 13.7166 12.5332C13.025 12.9249 12.1166 12.8415 11.225 12.3082L10.125 11.6499C10.075 11.6165 9.91665 11.6165 9.86665 11.6499L8.76665 12.3082C8.24998 12.6165 7.71665 12.7749 7.23331 12.7749Z" fill="#041578"/>
<path d="M12.5 18.9587H7.50002C2.97502 18.9587 1.04169 17.0253 1.04169 12.5003V7.50033C1.04169 2.97533 2.97502 1.04199 7.50002 1.04199H12.5C17.025 1.04199 18.9584 2.97533 18.9584 7.50033V12.5003C18.9584 17.0253 17.025 18.9587 12.5 18.9587ZM7.50002 2.29199C3.65835 2.29199 2.29169 3.65866 2.29169 7.50033V12.5003C2.29169 16.342 3.65835 17.7087 7.50002 17.7087H12.5C16.3417 17.7087 17.7084 16.342 17.7084 12.5003V7.50033C17.7084 3.65866 16.3417 2.29199 12.5 2.29199H7.50002Z" fill="#041578"/>
<path d="M7.23331 12.7749C6.88331 12.7749 6.55831 12.6915 6.27498 12.5332C5.58331 12.1415 5.20831 11.3665 5.20831 10.3499V2.0332C5.20831 1.69154 5.49165 1.4082 5.83331 1.4082C6.17498 1.4082 6.45831 1.69154 6.45831 2.0332V10.3499C6.45831 10.8915 6.61665 11.2915 6.89165 11.4415C7.18331 11.6082 7.63331 11.5249 8.12498 11.2332L9.22498 10.5749C9.67498 10.3082 10.3166 10.3082 10.7666 10.5749L11.8666 11.2332C12.3666 11.5332 12.8166 11.6082 13.1 11.4415C13.375 11.2832 13.5333 10.8832 13.5333 10.3499V2.0332C13.5333 1.69154 13.8166 1.4082 14.1583 1.4082C14.5 1.4082 14.7833 1.69154 14.7833 2.0332V10.3499C14.7833 11.3665 14.4083 12.1415 13.7166 12.5332C13.025 12.9249 12.1166 12.8415 11.225 12.3082L10.125 11.6499C10.075 11.6165 9.91665 11.6165 9.86665 11.6499L8.76665 12.3082C8.24998 12.6165 7.71665 12.7749 7.23331 12.7749Z" fill="#041578"/>
</svg>
