<svg width="53" height="53" viewBox="0 0 53 53" fill="none" xmlns="http://www.w3.org/2000/svg">
<rect width="53" height="53" rx="8" fill="#041578"/>
<path d="M26.1666 32.9997C22.4 32.9997 19.3333 29.933 19.3333 26.1663C19.3333 22.3997 22.4 19.333 26.1666 19.333C29.9333 19.333 33 22.3997 33 26.1663C33 29.933 29.9333 32.9997 26.1666 32.9997ZM26.1666 20.333C22.9466 20.333 20.3333 22.953 20.3333 26.1663C20.3333 29.3797 22.9466 31.9997 26.1666 31.9997C29.3866 31.9997 32 29.3797 32 26.1663C32 22.953 29.3866 20.333 26.1666 20.333Z" fill="#EAE9EF"/>
<path d="M33.1667 33.6666C33.04 33.6666 32.9134 33.62 32.8134 33.52L31.48 32.1866C31.2867 31.9933 31.2867 31.6733 31.48 31.48C31.6734 31.2866 31.9934 31.2866 32.1867 31.48L33.52 32.8133C33.7134 33.0066 33.7134 33.3266 33.52 33.52C33.42 33.62 33.2934 33.6666 33.1667 33.6666Z" fill="#EAE9EF"/>
</svg>
