<svg width="104" height="104" viewBox="0 0 104 104" fill="none" xmlns="http://www.w3.org/2000/svg">
<g filter="url(#filter0_d_1822_57067)">
<rect x="16" y="12" width="72" height="72" rx="8" fill="#041578" shape-rendering="crispEdges"/>
<g clip-path="url(#clip0_1822_57067)">
<path d="M68.419 48.0003H57.7894C57.4262 48.0003 57.125 47.6131 57.125 47.1462C57.125 46.6792 57.4262 46.292 57.7894 46.292H68.419C68.7822 46.292 69.0833 46.6792 69.0833 47.1462C69.0833 47.6131 68.7822 48.0003 68.419 48.0003Z" fill="#E6E8F2"/>
<path d="M48.8847 63.3747C48.8658 63.1899 48.8322 63.0031 48.8322 62.8184C48.828 61.1988 48.8322 59.5772 48.828 57.9576C48.828 57.6333 48.8826 57.3274 48.9939 57.0195C50.1447 53.8624 51.2872 50.7033 52.4317 47.5442C52.5199 47.302 52.5976 47.0557 52.6459 46.795C51.9886 47.8542 51.409 48.9524 50.8146 50.0424C50.2077 51.157 49.5987 52.2695 48.9918 53.3821C48.3932 54.4782 47.7926 55.5723 47.1899 56.6767C46.9316 56.7321 46.688 56.7301 46.4171 56.6767C46.3477 56.5043 46.2721 56.3339 46.207 56.1594C44.6236 51.9555 43.0422 47.7495 41.4503 43.5476C41.3222 43.2068 41.2403 42.8682 41.2424 42.5048C41.2445 42.2031 41.2172 41.9034 41.2046 41.6016C41.1962 41.4005 41.1059 41.2547 40.9316 41.1336C40.4465 40.7908 39.974 40.4336 39.4952 40.0826C38.0923 39.0522 36.6915 38.0197 35.2887 36.9872C35.1963 36.9194 35.1123 36.8435 34.9947 36.747C34.9947 35.9998 34.9107 35.2362 34.917 34.4705C34.9989 34.4397 35.0514 34.409 35.1039 34.4049C35.2383 34.3946 35.3727 34.3946 35.5092 34.3946C38.8672 34.3843 42.2232 34.372 45.5812 34.3638C51.4468 34.3515 57.3123 34.3433 63.1779 34.333C63.4068 34.333 63.6357 34.3412 63.852 34.3453C63.9675 34.7477 63.9927 35.9074 63.9087 36.8188C61.901 38.2968 59.8702 39.7932 57.8079 41.3122C57.7785 41.7494 57.7365 42.1969 57.7218 42.6465C57.7113 42.9544 57.6357 43.2376 57.5265 43.5209C55.0253 49.9438 52.5262 56.3667 50.0292 62.7896C49.9536 62.9826 49.8864 63.1797 49.815 63.3747H48.8847Z" fill="#E6E8F2"/>
<path d="M63.1042 53.1253C62.6372 53.1253 62.25 52.8242 62.25 52.461V41.8313C62.25 41.4682 62.6372 41.167 63.1042 41.167C63.5711 41.167 63.9583 41.4682 63.9583 41.8313V52.461C63.9583 52.8242 63.5711 53.1253 63.1042 53.1253Z" fill="#E6E8F2"/>
</g>
</g>
<defs>
<filter id="filter0_d_1822_57067" x="0" y="0" width="104" height="104" filterUnits="userSpaceOnUse" color-interpolation-filters="sRGB">
<feFlood flood-opacity="0" result="BackgroundImageFix"/>
<feColorMatrix in="SourceAlpha" type="matrix" values="0 0 0 0 0 0 0 0 0 0 0 0 0 0 0 0 0 0 127 0" result="hardAlpha"/>
<feOffset dy="4"/>
<feGaussianBlur stdDeviation="8"/>
<feComposite in2="hardAlpha" operator="out"/>
<feColorMatrix type="matrix" values="0 0 0 0 0 0 0 0 0 0 0 0 0 0 0 0 0 0 0.25 0"/>
<feBlend mode="normal" in2="BackgroundImageFix" result="effect1_dropShadow_1822_57067"/>
<feBlend mode="normal" in="SourceGraphic" in2="effect1_dropShadow_1822_57067" result="shape"/>
</filter>
<clipPath id="clip0_1822_57067">
<rect width="41" height="41" fill="white" transform="translate(31.5 27.5)"/>
</clipPath>
</defs>
</svg>
