<svg width="20" height="21" viewBox="0 0 20 21" fill="none" xmlns="http://www.w3.org/2000/svg">
<path d="M6.66663 5.29175C6.32496 5.29175 6.04163 5.00841 6.04163 4.66675V2.16675C6.04163 1.82508 6.32496 1.54175 6.66663 1.54175C7.00829 1.54175 7.29163 1.82508 7.29163 2.16675V4.66675C7.29163 5.00841 7.00829 5.29175 6.66663 5.29175Z" fill="#292D32"/>
<path d="M13.3334 5.29175C12.9917 5.29175 12.7084 5.00841 12.7084 4.66675V2.16675C12.7084 1.82508 12.9917 1.54175 13.3334 1.54175C13.675 1.54175 13.9584 1.82508 13.9584 2.16675V4.66675C13.9584 5.00841 13.675 5.29175 13.3334 5.29175Z" fill="#292D32"/>
<path d="M7.08333 12.5834C6.975 12.5834 6.86666 12.5584 6.76666 12.5168C6.65833 12.4751 6.57501 12.4167 6.49167 12.3417C6.34167 12.1834 6.25 11.9667 6.25 11.7501C6.25 11.5334 6.34167 11.3167 6.49167 11.1584C6.57501 11.0834 6.66666 11.0251 6.76666 10.9834C6.96666 10.9001 7.2 10.9001 7.4 10.9834C7.5 11.0251 7.59166 11.0834 7.67499 11.1584C7.70833 11.2001 7.74999 11.2417 7.77499 11.2834C7.80832 11.3334 7.83334 11.3834 7.85001 11.4334C7.87501 11.4834 7.89168 11.5334 7.90001 11.5834C7.90834 11.6417 7.91667 11.7001 7.91667 11.7501C7.91667 11.9667 7.82499 12.1834 7.67499 12.3417C7.59166 12.4167 7.5 12.4751 7.4 12.5168C7.3 12.5584 7.19167 12.5834 7.08333 12.5834Z" fill="#292D32"/>
<path d="M9.99996 12.5832C9.89163 12.5832 9.78329 12.5583 9.68329 12.5166C9.57496 12.4749 9.49163 12.4166 9.4083 12.3416C9.2583 12.1832 9.16663 11.9666 9.16663 11.7499C9.16663 11.6999 9.17495 11.6416 9.18328 11.5832C9.19162 11.5332 9.20828 11.4832 9.23328 11.4332C9.24995 11.3832 9.27497 11.3332 9.3083 11.2832C9.34164 11.2416 9.37497 11.1999 9.4083 11.1583C9.71663 10.8499 10.275 10.8499 10.5916 11.1583C10.625 11.1999 10.6583 11.2416 10.6916 11.2832C10.7249 11.3332 10.75 11.3832 10.7666 11.4332C10.7916 11.4832 10.8083 11.5332 10.8166 11.5832C10.825 11.6416 10.8333 11.6999 10.8333 11.7499C10.8333 11.9666 10.7416 12.1832 10.5916 12.3416C10.4333 12.4916 10.225 12.5832 9.99996 12.5832Z" fill="#292D32"/>
<path d="M7.08333 15.4999C6.975 15.4999 6.86666 15.4749 6.76666 15.4333C6.66666 15.3916 6.57501 15.3332 6.49167 15.2582C6.34167 15.0999 6.25 14.8832 6.25 14.6666C6.25 14.6166 6.25832 14.5582 6.26666 14.5082C6.27499 14.4499 6.29166 14.3999 6.31666 14.3499C6.33332 14.2999 6.35834 14.2499 6.39168 14.1999C6.41668 14.1582 6.45834 14.1166 6.49167 14.0749C6.57501 13.9999 6.66666 13.9416 6.76666 13.8999C6.96666 13.8166 7.2 13.8166 7.4 13.8999C7.5 13.9416 7.59166 13.9999 7.67499 14.0749C7.70833 14.1166 7.74999 14.1582 7.77499 14.1999C7.80832 14.2499 7.83334 14.2999 7.85001 14.3499C7.87501 14.3999 7.89168 14.4499 7.90001 14.5082C7.90834 14.5582 7.91667 14.6166 7.91667 14.6666C7.91667 14.8832 7.82499 15.0999 7.67499 15.2582C7.59166 15.3332 7.5 15.3916 7.4 15.4333C7.3 15.4749 7.19167 15.4999 7.08333 15.4999Z" fill="#292D32"/>
<path d="M17.0833 8.69995H2.91663C2.57496 8.69995 2.29163 8.41662 2.29163 8.07495C2.29163 7.73328 2.57496 7.44995 2.91663 7.44995H17.0833C17.425 7.44995 17.7083 7.73328 17.7083 8.07495C17.7083 8.41662 17.425 8.69995 17.0833 8.69995Z" fill="#292D32"/>
<path d="M13.1834 19.4833C12.8668 19.4833 12.5668 19.3667 12.3501 19.15C12.0918 18.8917 11.9751 18.5167 12.0334 18.125L12.1918 17C12.2334 16.7083 12.4084 16.3583 12.6168 16.15L15.5667 13.2C15.9667 12.8 16.3584 12.5917 16.7834 12.55C17.3084 12.5 17.8167 12.7167 18.3001 13.2C18.8084 13.7083 19.4917 14.7417 18.3001 15.9333L15.3501 18.8833C15.1418 19.0917 14.7917 19.2667 14.5001 19.3083L13.3751 19.4667C13.3084 19.475 13.2501 19.4833 13.1834 19.4833ZM16.9251 13.7917C16.9167 13.7917 16.9084 13.7917 16.9001 13.7917C16.7834 13.8 16.6251 13.9083 16.4501 14.0833L13.5001 17.0333C13.4751 17.0583 13.4334 17.1417 13.4334 17.175L13.2834 18.2167L14.3251 18.0667C14.3584 18.0583 14.4417 18.0167 14.4667 17.9917L17.4167 15.0417C17.7834 14.675 17.8334 14.4917 17.4167 14.075C17.2834 13.95 17.0917 13.7917 16.9251 13.7917Z" fill="#292D32"/>
<path d="M17.4335 16.5415C17.3751 16.5415 17.3168 16.5332 17.2668 16.5165C16.1668 16.2082 15.2918 15.3332 14.9835 14.2332C14.8918 13.8999 15.0834 13.5582 15.4168 13.4582C15.7501 13.3665 16.0918 13.5582 16.1918 13.8915C16.3834 14.5749 16.9251 15.1165 17.6084 15.3082C17.9418 15.3999 18.1334 15.7499 18.0418 16.0832C17.9584 16.3582 17.7085 16.5415 17.4335 16.5415Z" fill="#292D32"/>
<path d="M10 19.4584H6.66667C3.625 19.4584 1.875 17.7084 1.875 14.6667V7.58342C1.875 4.54175 3.625 2.79175 6.66667 2.79175H13.3333C16.375 2.79175 18.125 4.54175 18.125 7.58342V10.5001C18.125 10.8417 17.8417 11.1251 17.5 11.1251C17.1583 11.1251 16.875 10.8417 16.875 10.5001V7.58342C16.875 5.20008 15.7167 4.04175 13.3333 4.04175H6.66667C4.28333 4.04175 3.125 5.20008 3.125 7.58342V14.6667C3.125 17.0501 4.28333 18.2084 6.66667 18.2084H10C10.3417 18.2084 10.625 18.4917 10.625 18.8334C10.625 19.1751 10.3417 19.4584 10 19.4584Z" fill="#292D32"/>
</svg>
