<svg width="228" height="193" viewBox="0 0 228 193" fill="none" xmlns="http://www.w3.org/2000/svg">
<circle cx="6.5" cy="63" r="6" fill="#F52424"/>
<circle cx="63.5" cy="184" r="9" fill="#041578"/>
<circle cx="173.5" cy="5" r="5" fill="#F52424"/>
<path d="M185.5 142L187.028 144.897L190.255 145.455L187.973 147.803L188.439 151.045L185.5 149.6L182.561 151.045L183.027 147.803L180.745 145.455L183.972 144.897L185.5 142Z" fill="#F52424"/>
<path d="M216 67L219.515 73.6621L226.937 74.9463L221.687 80.3479L222.76 87.8037L216 84.48L209.24 87.8037L210.313 80.3479L205.063 74.9463L212.485 73.6621L216 67Z" fill="#041578"/>
<path d="M31 126L32.0698 128.028L34.3287 128.418L32.7309 130.062L33.0572 132.332L31 131.32L28.9428 132.332L29.2691 130.062L27.6713 128.418L29.9302 128.028L31 126Z" fill="#F52424"/>
<rect x="48.5" y="27" width="120" height="120" rx="60" fill="#041578"/>
<path d="M99.4322 99.6044L86.8274 86.9996L82.5352 91.2616L99.4322 108.159L135.705 71.8859L131.443 67.6239L99.4322 99.6044Z" fill="white"/>
</svg>
