<svg width="390" height="844" viewBox="0 0 390 844" fill="none" xmlns="http://www.w3.org/2000/svg">
<g clip-path="url(#clip0_1797_55431)">
<g opacity="0.5">
<path d="M409.79 487.749C409.79 487.749 407.368 484.489 401.08 483.946C394.792 483.408 391.022 486.52 384.027 480.551C384.027 480.551 387.498 487.715 394.851 488.671C402.201 489.628 406.903 486.986 411.16 491.851L409.79 487.751V487.749Z" fill="#B459FF"/>
<path d="M65.7628 547.694C65.7628 547.694 69.9606 553.78 63.0875 560.904C56.2123 568.028 58.5519 571.771 58.5519 571.771L62.3738 575.226C62.3738 575.226 62.283 578.089 67.7456 573.456C73.2039 568.821 80.1699 551.907 73.3454 548.927C64.1897 544.924 65.7607 547.694 65.7607 547.694H65.7628Z" fill="#8943C2"/>
<path d="M75.2097 550.556C75.2097 550.556 72.6548 546.326 67.3611 542.777C64.785 541.046 55.2472 542.279 51.571 550.454C51.571 550.454 50.5258 551.442 52.2319 554.852C53.936 558.262 55.4077 560.838 56.5162 560.612C56.5162 560.612 56.8203 558.03 59.2507 555.585C60.7837 554.042 62.1224 553.307 65.5072 551.537C70.974 548.676 74.382 549.189 75.2097 550.558V550.556Z" fill="#B459FF"/>
<path d="M63.0094 576.053C63.0094 576.053 60.9865 576.543 57.1921 570.456C55.448 567.658 55.6781 563.967 57.9501 561.579C58.7398 560.754 59.7513 559.837 61.0478 558.849C67.8638 553.666 75.7356 552.283 78.9241 555.061C85.4128 560.714 87.0936 564.162 87.5413 565.933C87.5413 565.933 85.0117 560.133 76.1474 562.515C66.0395 565.234 59.8484 573.612 63.0115 576.053H63.0094Z" fill="#B459FF"/>
<path d="M179.144 621.35C179.144 621.35 181.03 625.721 188.059 628.033C195.088 630.341 200.224 627.805 206.601 636.5C206.601 636.5 204.569 627.389 196.438 624.321C188.306 621.253 182.233 622.997 178.684 616.302L179.144 621.352V621.35Z" fill="#B459FF"/>
<path d="M66.0798 276.494C68.6475 281.188 69.4942 283.897 70.0432 289.218C71.8591 288.65 72.7692 288.367 74.5894 287.801C74.0382 282.478 73.1957 279.771 70.626 275.078C68.8058 275.646 67.8979 275.926 66.0819 276.492L66.0798 276.494Z" fill="#FF4F5D"/>
<path d="M84.4076 359.55C85.8013 356.134 86.8824 354.506 89.4901 351.901C88.3963 351.174 87.8495 350.811 86.7578 350.085C84.1521 352.69 83.0689 354.32 81.6753 357.735C82.7691 358.459 83.316 358.824 84.4076 359.55Z" fill="#FF4F5D"/>
<path d="M270.113 557.796C272.238 569.563 272.109 575.895 269.503 587.563C273.758 587.652 275.884 587.694 280.139 587.782C282.743 576.112 282.873 569.778 280.749 558.013C276.494 557.927 274.366 557.884 270.113 557.794V557.796Z" fill="#FF4F5D"/>
<path d="M10.1641 301.202C9.88111 294.866 10.4005 291.545 12.6008 285.595C10.3689 285.246 9.25184 285.073 7.02417 284.725C4.82394 290.675 4.30663 293.994 4.58746 300.332C6.81725 300.681 7.93215 300.854 10.1641 301.2V301.202Z" fill="#FF4F5D"/>
<path d="M139.977 416.85C135.085 422.349 131.966 424.688 125.327 427.857C126.898 429.95 127.686 430.999 129.261 433.092C135.902 429.925 139.021 427.581 143.913 422.085C142.34 419.99 141.552 418.945 139.979 416.85H139.977Z" fill="#FF4F5D"/>
<path d="M313.371 329.428C317.866 329.813 320.161 330.482 324.154 332.581C324.606 331.039 324.83 330.269 325.28 328.727C321.287 326.631 318.992 325.959 314.496 325.577C314.044 327.116 313.82 327.887 313.371 329.428Z" fill="#FF4F5D"/>
<path d="M252.863 352.701C255.8 358.723 256.693 362.16 257.061 368.851C259.371 368.252 260.523 367.95 262.833 367.352C262.464 360.663 261.569 357.226 258.634 351.202C256.326 351.801 255.171 352.101 252.863 352.701Z" fill="#FF4F5D"/>
<path d="M14.9784 268.515C13.0781 265.359 12.4235 263.518 11.8998 259.871C10.6646 260.312 10.048 260.532 8.81274 260.971C9.33641 264.618 9.99309 266.457 11.8914 269.613C13.1266 269.174 13.7432 268.952 14.9806 268.513L14.9784 268.515Z" fill="#FF4F5D"/>
<path d="M110.644 293.844C105.534 299.71 102.265 302.22 95.2822 305.643C96.9672 307.839 97.8118 308.937 99.4969 311.131C106.48 307.706 109.748 305.195 114.858 299.332C113.173 297.136 112.329 296.038 110.644 293.844Z" fill="#FF4F5D"/>
<path d="M22.8414 189.593C19.5137 196.477 17.0601 199.701 11.323 204.753C13.4894 206.4 14.5726 207.224 16.7391 208.871C22.4761 203.816 24.9277 200.592 28.2576 193.708C26.0911 192.064 25.0079 191.238 22.8414 189.593Z" fill="#FF4F5D"/>
<path d="M317.182 279.824C310.556 279.478 307.15 278.606 301.176 275.717C300.589 278.006 300.296 279.148 299.709 281.437C305.683 284.323 309.091 285.198 315.717 285.542C316.304 283.255 316.597 282.111 317.182 279.826V279.824Z" fill="#FF4F5D"/>
<path d="M26.653 327.661C21.0067 327.902 18.0485 327.437 12.7506 325.467C12.436 327.456 12.2776 328.449 11.9651 330.436C17.2651 332.401 20.2212 332.87 25.8696 332.629C26.1842 330.643 26.3384 329.65 26.653 327.661Z" fill="#FF4F5D"/>
<path d="M85.6386 253.678C80.2141 251.706 77.6063 250.114 73.3748 246.191C72.3042 247.943 71.77 248.82 70.6995 250.572C74.931 254.493 77.5409 256.085 82.9633 258.059C84.0338 256.305 84.5681 255.429 85.6386 253.676V253.678Z" fill="#FF4F5D"/>
<path d="M301.32 353.632C302.842 346.961 304.331 343.657 308.324 338.098C306.103 337.099 304.992 336.599 302.773 335.596C298.784 341.153 297.291 344.459 295.769 351.129C297.99 352.13 299.099 352.631 301.32 353.632Z" fill="#FF4F5D"/>
<path d="M345.553 256.088C348.127 255.817 349.491 255.946 351.968 256.696C352.054 255.775 352.096 255.319 352.183 254.403C349.706 253.655 348.342 253.528 345.768 253.799C345.682 254.713 345.639 255.173 345.553 256.088Z" fill="#FF4F5D"/>
<path d="M99.2367 267.918C102.159 265.171 103.964 264.052 107.725 262.656C106.973 261.444 106.598 260.836 105.844 259.624C102.087 261.02 100.28 262.141 97.3574 264.886C98.1112 266.1 98.485 266.706 99.2388 267.918H99.2367Z" fill="#FFCB00"/>
<path d="M101.796 378.76C98.567 377.628 97.0087 376.701 94.4727 374.406C93.8498 375.453 93.5394 375.975 92.9165 377.022C95.4525 379.319 97.0129 380.244 100.241 381.378C100.864 380.331 101.175 379.809 101.796 378.76Z" fill="#FFCB00"/>
<path d="M174.112 405.297C176.726 406.278 177.98 407.066 180.007 408.985C180.535 408.143 180.799 407.723 181.325 406.88C179.298 404.961 178.044 404.175 175.432 403.194C174.904 404.036 174.64 404.456 174.114 405.299L174.112 405.297Z" fill="#FFCB00"/>
<path d="M136.364 398.652C136.332 397.22 136.465 396.473 136.991 395.141C136.491 395.05 136.237 395.008 135.737 394.919C135.211 396.251 135.078 396.999 135.11 398.428C135.612 398.519 135.864 398.563 136.366 398.652H136.364Z" fill="#FFCB00"/>
<path d="M230.857 309.249C224.305 309.923 220.83 309.585 214.531 307.664C214.305 309.997 214.191 311.162 213.965 313.497C220.264 315.419 223.739 315.755 230.292 315.083C230.517 312.75 230.631 311.582 230.857 309.249Z" fill="#FFCB00"/>
<path d="M24.7536 346.254C31.5612 345.697 35.1572 346.121 41.648 348.247C41.9331 345.834 42.0746 344.626 42.3596 342.211C35.8687 340.085 32.2728 339.66 25.4631 340.218C25.178 342.633 25.0365 343.839 24.7515 346.254H24.7536Z" fill="#FFCB00"/>
<path d="M163.628 302.178C168.567 301.576 171.194 301.781 175.978 303.145C176.118 301.379 176.185 300.497 176.325 298.732C171.54 297.372 168.911 297.165 163.972 297.765C163.835 299.53 163.765 300.412 163.626 302.178H163.628Z" fill="#FFCB00"/>
<path d="M179.435 222.789C184.374 222.188 187 222.392 191.785 223.756C191.925 221.991 191.992 221.109 192.131 219.344C187.347 217.984 184.718 217.777 179.779 218.377C179.642 220.142 179.572 221.024 179.433 222.789H179.435Z" fill="#FFCB00"/>
<path d="M134.364 347.893C131.793 341.732 131.102 338.263 131.121 331.588C128.792 332.053 127.626 332.285 125.295 332.747C125.276 339.422 125.967 342.893 128.539 349.054C130.868 348.59 132.035 348.357 134.364 347.893Z" fill="#FFCB00"/>
<path d="M62.8459 311.62C65.5486 311.943 66.9169 312.395 69.2818 313.742C69.5859 312.822 69.7379 312.364 70.0378 311.443C67.6749 310.096 66.3046 309.646 63.6018 309.321C63.2998 310.242 63.1478 310.702 62.8438 311.62H62.8459Z" fill="#FFCB00"/>
<path d="M39.6785 258.025C37.4086 258.492 36.1839 258.494 33.9119 258.046C33.9161 258.87 33.9161 259.281 33.9203 260.105C36.1902 260.557 37.417 260.55 39.6848 260.086C39.6848 259.262 39.6806 258.851 39.6785 258.027V258.025Z" fill="#FFCB00"/>
<path d="M203.063 360.473C204.79 363.564 205.362 365.348 205.759 368.866C206.959 368.481 207.558 368.287 208.758 367.903C208.363 364.385 207.789 362.599 206.061 359.51C204.862 359.896 204.262 360.086 203.063 360.47V360.473Z" fill="#FFCB00"/>
<path d="M238.335 800.11C236.354 804.211 234.895 806.13 231.483 809.141C232.773 810.121 233.417 810.611 234.707 811.59C238.124 808.581 239.583 806.658 241.562 802.56C240.269 801.58 239.625 801.09 238.335 800.11Z" fill="#FFCB00"/>
<path d="M322.126 401.12C320.714 398.608 319.715 397.45 317.439 395.683C318.216 395.014 318.602 394.68 319.381 394.009C321.658 395.776 322.654 396.933 324.067 399.444C323.292 400.113 322.903 400.449 322.126 401.118V401.12Z" fill="#FFCB00"/>
<path d="M284.807 473.147C282.229 467.102 280.257 464.233 275.535 459.662C277.465 458.338 278.428 457.675 280.356 456.351C285.075 460.922 287.047 463.792 289.625 469.837C287.698 471.16 286.735 471.823 284.807 473.149V473.147Z" fill="#FFCB00"/>
<path d="M142.086 355.158C144.227 356.56 145.488 357.062 148.007 357.523C147.669 358.369 147.5 358.792 147.162 359.638C144.643 359.176 143.383 358.676 141.241 357.276C141.579 356.429 141.748 356.005 142.086 355.16V355.158Z" fill="#FFCB00"/>
<path d="M274.359 377.892C274.306 376.576 274.142 375.899 273.582 374.708C274.038 374.598 274.266 374.541 274.72 374.431C275.28 375.622 275.442 376.302 275.497 377.615C275.041 377.727 274.813 377.782 274.359 377.892Z" fill="#FFCB00"/>
<path d="M60.3774 427.777C63.511 422.462 64.5794 419.373 65.4071 413.259C67.4807 413.977 68.5174 414.336 70.5931 415.056C69.7675 421.168 68.6969 424.257 65.5655 429.574C63.492 428.854 62.4552 428.497 60.3774 427.777Z" fill="#FFCB00"/>
<path d="M116.448 460.466C112.396 466.152 110.886 469.533 109.357 476.344C107.087 475.333 105.954 474.826 103.684 473.813C105.212 466.999 106.722 463.621 110.772 457.932C113.042 458.948 114.176 459.455 116.446 460.466H116.448Z" fill="#FFCB00"/>
<path d="M205.751 721.405C203.99 723.421 203.285 724.652 202.445 727.195C201.617 726.722 201.203 726.485 200.375 726.012C201.218 723.472 201.921 722.237 203.684 720.22C204.512 720.693 204.924 720.93 205.753 721.403L205.751 721.405Z" fill="#FFCB00"/>
<path d="M249.378 397.567C248.44 394.074 247.587 392.356 245.368 389.501C246.521 388.927 247.098 388.642 248.25 388.069C250.47 390.926 251.323 392.641 252.26 396.135C251.109 396.707 250.531 396.995 249.38 397.567H249.378Z" fill="#FFCB00"/>
<path d="M240.355 419.091C237.099 416.838 235.169 416.008 231.294 415.195C231.85 413.901 232.128 413.253 232.686 411.958C236.562 412.771 238.488 413.601 241.746 415.854C241.191 417.148 240.912 417.797 240.355 419.091Z" fill="#FFCB00"/>
<path d="M286.475 336.598C284.091 339.404 283.148 341.113 282.039 344.626C280.893 343.993 280.318 343.676 279.172 343.04C280.28 339.529 281.224 337.821 283.608 335.015C284.755 335.646 285.329 335.965 286.475 336.598Z" fill="#FFCB00"/>
<path d="M373.14 406.616C366.516 408.863 363.31 410.725 358.074 415.364C356.824 413.212 356.199 412.135 354.949 409.982C360.183 405.343 363.389 403.48 370.015 401.234C371.265 403.388 371.89 404.464 373.14 406.616Z" fill="#FFCB00"/>
<path d="M214.286 243.372C219.943 240.152 222.542 237.884 226.508 232.724C228.03 234.47 228.79 235.344 230.313 237.088C226.347 242.25 223.748 244.518 218.091 247.738C216.571 245.99 215.809 245.118 214.288 243.372H214.286Z" fill="#FFCB00"/>
<path d="M338.389 635.383C343.368 634.274 345.627 632.944 349.006 629.129C350.442 631.566 351.162 632.786 352.597 635.223C349.217 639.038 346.958 640.37 341.981 641.479C340.543 639.038 339.825 637.822 338.389 635.383Z" fill="#FF4F5D"/>
<path d="M203.625 580.848C206.303 582.309 207.846 582.6 210.87 582.21C210.558 583.871 210.403 584.706 210.091 586.367C207.063 586.756 205.524 586.464 202.846 585.005C203.159 583.342 203.315 582.51 203.625 580.848Z" fill="#FFCB00"/>
<path d="M155.125 697.769C154.149 697.305 153.596 697.229 152.53 697.425C152.608 696.83 152.65 696.53 152.73 695.934C153.795 695.738 154.348 695.814 155.325 696.281C155.247 696.876 155.207 697.176 155.125 697.769Z" fill="#FF4F5D"/>
<path d="M119.514 602.925C118.342 598.189 117.016 596.059 113.287 592.915C115.586 591.483 116.737 590.772 119.034 589.34C122.765 592.488 124.089 594.617 125.261 599.355C122.962 600.782 121.811 601.498 119.514 602.927V602.925Z" fill="#FF4F5D"/>
<path d="M167.117 699.68C167.845 698.34 167.987 697.563 167.79 696.051C168.622 696.205 169.038 696.281 169.87 696.437C170.073 697.951 169.929 698.724 169.201 700.067C168.369 699.913 167.953 699.834 167.117 699.68Z" fill="#FF4F5D"/>
<path d="M144.35 624.914C145.07 627.275 145.801 628.314 147.767 629.802C146.645 630.588 146.086 630.978 144.963 631.764C142.995 630.275 142.268 629.236 141.544 626.878C142.665 626.092 143.227 625.7 144.35 624.916V624.914Z" fill="#FF4F5D"/>
<path d="M66.269 699.881C69.4173 699.357 70.8742 698.601 73.1167 696.327C73.9317 697.9 74.3393 698.686 75.1543 700.259C72.914 702.531 71.457 703.286 68.3066 703.81C67.4937 702.239 67.084 701.454 66.2668 699.881H66.269Z" fill="#FF4F5D"/>
<path d="M176.006 401.491C178.517 398.465 179.267 396.586 179.526 392.661C181.553 393.467 182.567 393.871 184.596 394.679C184.336 398.602 183.589 400.484 181.076 403.512C179.047 402.703 178.031 402.302 176.006 401.491Z" fill="#FF4F5D"/>
<path d="M26.8105 420.691C22.1566 421.143 19.9543 422.101 16.4512 425.197C15.4166 422.819 14.8992 421.63 13.8667 419.253C17.3719 416.155 19.5742 415.197 24.2238 414.745C25.2585 417.124 25.7758 418.313 26.8105 420.691Z" fill="#FF4F5D"/>
<path d="M112.242 512.331C110.772 516.347 110.692 518.545 111.864 522.66C109.493 522.574 108.304 522.532 105.935 522.443C104.765 518.33 104.845 516.13 106.31 512.114C108.682 512.2 109.868 512.243 112.242 512.331Z" fill="#FF4F5D"/>
<path d="M332.641 792.53C331.469 791.183 330.684 790.712 328.948 790.307C329.457 789.458 329.71 789.033 330.223 788.185C331.961 788.588 332.747 789.061 333.921 790.406C333.408 791.255 333.152 791.679 332.641 792.53Z" fill="#FF4F5D"/>
<path d="M123.304 227.951C120.065 226.608 118.268 226.467 114.86 227.28C115.014 225.341 115.091 224.372 115.247 222.432C118.655 221.619 120.454 221.762 123.693 223.103C123.539 225.042 123.459 226.013 123.307 227.951H123.304Z" fill="#FF4F5D"/>
<path d="M60.8869 223.04C61.6872 218.775 61.4042 216.558 59.5503 212.633C61.9406 212.327 63.1336 212.173 65.5239 211.866C67.3799 215.792 67.665 218.007 66.8626 222.274C64.4702 222.582 63.2772 222.734 60.8869 223.04Z" fill="#FF4F5D"/>
<path d="M15.417 612.553C15.0538 607.594 14.0931 605.227 10.8899 601.424C13.4427 600.385 14.7223 599.866 17.2794 598.825C20.4805 602.627 21.4455 604.994 21.8066 609.954C19.2516 610.993 17.972 611.51 15.417 612.553Z" fill="#FF4F5D"/>
<path d="M290.66 517.108C287.56 513.937 285.539 512.875 281.168 512.125C282.315 509.946 282.885 508.857 284.03 506.678C288.401 507.427 290.419 508.489 293.519 511.661C292.377 513.84 291.802 514.929 290.66 517.108Z" fill="#FF4F5D"/>
<path d="M160.685 464.604C156.746 464.566 154.812 465.172 151.601 467.452C150.946 465.366 150.619 464.325 149.966 462.235C153.178 459.957 155.112 459.353 159.052 459.391C159.707 461.477 160.032 462.518 160.687 464.602L160.685 464.604Z" fill="#FF4F5D"/>
<path d="M196.283 529.36C199.332 532.407 201.309 533.416 205.566 534.092C204.478 536.222 203.936 537.286 202.85 539.419C198.593 538.741 196.617 537.734 193.566 534.685C194.655 532.553 195.198 531.49 196.283 529.358V529.36Z" fill="#FF4F5D"/>
<path d="M278.122 306.329C279.876 304.059 280.377 302.672 280.467 299.807C281.965 300.345 282.714 300.615 284.213 301.152C284.12 304.021 283.622 305.406 281.865 307.674C280.37 307.138 279.621 306.865 278.122 306.329Z" fill="#FF4F5D"/>
<path d="M171.807 570.89C169.801 573.321 169.205 574.828 169.009 577.972C167.383 577.328 166.57 577.007 164.944 576.365C165.143 573.224 165.738 571.716 167.742 569.286C169.368 569.928 170.181 570.249 171.809 570.893L171.807 570.89Z" fill="#FF4F5D"/>
<path d="M149.897 536.015C145.287 534.514 142.796 534.51 138.184 535.998C138.184 533.311 138.188 531.968 138.192 529.276C142.806 527.787 145.296 527.791 149.905 529.29C149.901 531.978 149.901 533.325 149.897 536.013V536.015Z" fill="#FFCB00"/>
<path d="M378.422 339.566C379.108 337.771 379.159 336.781 378.66 334.925C379.727 334.979 380.259 335.007 381.325 335.062C381.823 336.918 381.771 337.906 381.084 339.701C380.02 339.646 379.486 339.62 378.422 339.566Z" fill="#FF4F5D"/>
<path d="M385.162 364.959C384.127 364.812 383.595 364.902 382.672 365.39C382.573 364.818 382.524 364.533 382.425 363.961C383.348 363.473 383.88 363.384 384.917 363.53C385.016 364.102 385.064 364.389 385.164 364.959H385.162Z" fill="#FF4F5D"/>
<path d="M378.789 214.291C375.909 217.99 375.088 220.256 374.927 224.941C372.482 224.054 371.257 223.613 368.812 222.724C368.975 218.039 369.794 215.773 372.674 212.074C375.119 212.961 376.344 213.402 378.789 214.289V214.291Z" fill="#FF4F5D"/>
<path d="M333.938 571.438C330.54 569.472 328.57 569.05 324.664 569.453C325.122 567.323 325.35 566.259 325.806 564.132C329.711 563.731 331.683 564.151 335.078 566.119C334.62 568.248 334.392 569.314 333.938 571.44V571.438Z" fill="#FF4F5D"/>
<path d="M336.825 310.81C337.49 309.57 337.621 308.859 337.433 307.463C338.204 307.604 338.588 307.672 339.356 307.813C339.542 309.207 339.413 309.921 338.746 311.16C337.978 311.019 337.593 310.949 336.827 310.81H336.825Z" fill="#FF4F5D"/>
<path d="M332.538 355.471C334.626 356.191 335.76 356.214 337.872 355.574C337.849 356.799 337.836 357.411 337.813 358.636C335.701 359.278 334.565 359.255 332.477 358.532C332.502 357.308 332.515 356.695 332.536 355.471H332.538Z" fill="#FF4F5D"/>
<path d="M387.504 305.108C383.644 302.271 381.304 301.496 376.513 301.462C377.351 298.939 377.77 297.678 378.608 295.155C383.399 295.187 385.736 295.964 389.598 298.802C388.76 301.325 388.344 302.583 387.504 305.106V305.108Z" fill="#FF4F5D"/>
<path d="M116.131 727.95C115.779 730.444 116.002 731.724 117.181 733.951C115.804 734.192 115.114 734.31 113.737 734.553C112.556 732.327 112.335 731.05 112.687 728.554C114.064 728.314 114.755 728.191 116.131 727.95Z" fill="#FF4F5D"/>
<path d="M334.715 314.929C336.813 313.924 337.679 313.098 338.79 311.052C339.681 311.988 340.124 312.456 341.015 313.392C339.905 315.438 339.039 316.263 336.938 317.268C336.049 316.333 335.603 315.864 334.712 314.929H334.715Z" fill="#FF4F5D"/>
<path d="M362.881 369.761C362.511 372.173 362.714 373.412 363.827 375.583C362.492 375.798 361.823 375.908 360.486 376.123C359.372 373.955 359.171 372.715 359.54 370.304C360.877 370.089 361.544 369.979 362.881 369.761Z" fill="#FF4F5D"/>
<path d="M346.92 339.981C346.149 340.969 345.93 341.573 345.885 342.825C345.233 342.587 344.908 342.469 344.255 342.232C344.299 340.98 344.519 340.376 345.29 339.388C345.94 339.627 346.27 339.745 346.922 339.981H346.92Z" fill="#FF4F5D"/>
<path d="M250.1 528.638C247.83 528.089 246.633 528.178 244.475 529.065C244.378 527.772 244.327 527.126 244.23 525.834C246.39 524.947 247.587 524.856 249.857 525.407C249.954 526.7 250.003 527.344 250.102 528.636L250.1 528.638Z" fill="#FFCB00"/>
<path d="M353.493 299.891C353.69 301.261 354.002 301.899 354.965 302.893C354.274 303.231 353.93 303.4 353.24 303.738C352.277 302.746 351.962 302.108 351.768 300.736C352.454 300.398 352.803 300.229 353.493 299.891Z" fill="#FF4F5D"/>
<path d="M316.49 343.966C318.154 342.847 318.796 342.038 319.491 340.152C320.365 340.843 320.804 341.187 321.681 341.878C320.984 343.759 320.346 344.572 318.68 345.689C317.804 345 317.367 344.654 316.49 343.966Z" fill="#FF4F5D"/>
<path d="M170.814 492.212C172.245 495.457 173.457 496.815 176.519 498.601C175.052 499.912 174.319 500.569 172.851 501.878C169.792 500.092 168.576 498.734 167.146 495.491C168.611 494.18 169.346 493.525 170.814 492.212Z" fill="#FF4F5D"/>
<path d="M322.713 777.542C323.731 779.234 324.499 779.899 326.313 780.67C325.595 781.497 325.236 781.911 324.521 782.737C322.702 781.966 321.936 781.301 320.918 779.61C321.636 778.784 321.995 778.37 322.713 777.542Z" fill="#01B5D6"/>
<path d="M386.346 721.329C388.082 720.153 388.745 719.3 389.461 717.328C390.379 718.043 390.84 718.4 391.758 719.116C391.042 721.09 390.379 721.941 388.642 723.119C387.723 722.404 387.263 722.047 386.346 721.331V721.329Z" fill="#01B5D6"/>
<path d="M128.731 488.684C126.957 489.02 126.144 489.467 124.909 490.78C124.428 489.902 124.187 489.463 123.706 488.585C124.943 487.271 125.758 486.826 127.527 486.488C128.011 487.366 128.25 487.805 128.731 488.684Z" fill="#01B5D6"/>
<path d="M25.0543 213.733C28.7854 215.697 30.9266 216.064 35.1011 215.463C34.7041 217.771 34.5056 218.925 34.1065 221.231C29.932 221.831 27.7951 221.461 24.0598 219.496C24.4589 217.192 24.6574 216.037 25.0565 213.731L25.0543 213.733Z" fill="#01B5D6"/>
<path d="M336.299 207.752C339.287 206.956 340.621 206.092 342.572 203.694C343.506 205.134 343.97 205.854 344.904 207.296C342.953 209.694 341.616 210.56 338.63 211.356C337.697 209.916 337.23 209.196 336.299 207.754V207.752Z" fill="#01B5D6"/>
<path d="M79.3438 632.678C79.1073 638.343 79.8886 641.149 83.0179 645.874C79.9857 646.717 78.4717 647.139 75.4417 647.982C72.3124 643.256 71.5311 640.448 71.7697 634.785C74.7998 633.941 76.3158 633.518 79.3438 632.676V632.678Z" fill="#01B5D6"/>
<path d="M360.759 113.142C361.46 112.141 361.644 111.542 361.623 110.321C362.271 110.52 362.594 110.619 363.24 110.817C363.259 112.036 363.075 112.635 362.377 113.636C361.73 113.436 361.407 113.339 360.759 113.142Z" fill="#01B5D6"/>
<path d="M55.5468 460.899C54.244 464.159 54.1236 465.96 54.983 469.364C53.0404 469.235 52.067 469.172 50.1223 469.041C49.2629 465.637 49.3832 463.838 50.6839 460.576C52.6286 460.705 53.6021 460.77 55.5447 460.899H55.5468Z" fill="#01B5D6"/>
<path d="M287.672 626.483C288.954 630.757 290.257 632.644 293.802 635.353C291.764 636.76 290.747 637.465 288.711 638.871C285.166 636.164 283.861 634.276 282.581 630.003C284.617 628.597 285.635 627.891 287.672 626.485V626.483Z" fill="#01B5D6"/>
<path d="M52.6504 765.414C51.8121 761.74 50.8176 760.078 47.9839 757.595C49.7787 756.523 50.6782 755.989 52.4709 754.916C55.3067 757.399 56.2991 759.063 57.1395 762.737C55.3447 763.807 54.4452 764.344 52.6504 765.414Z" fill="#01B5D6"/>
<path d="M256.018 273.293C257.986 268.519 258.189 265.871 256.979 260.852C259.838 261.074 261.263 261.182 264.122 261.405C265.33 266.424 265.127 269.072 263.159 273.846C260.302 273.624 258.875 273.514 256.018 273.293Z" fill="#01B5D6"/>
<path d="M29.7716 518.315C28.8531 514.623 27.8184 512.963 24.9087 510.514C26.6993 509.397 27.5967 508.839 29.3873 507.72C32.297 510.172 33.3316 511.831 34.2502 515.524C32.4575 516.641 31.5643 517.201 29.7695 518.315H29.7716Z" fill="#01B5D6"/>
<path d="M255.392 704.772C254.712 699.36 253.523 696.822 249.796 692.84C252.537 691.556 253.908 690.912 256.646 689.628C260.373 693.608 261.562 696.149 262.242 701.56C259.503 702.844 258.135 703.486 255.392 704.772Z" fill="url(#paint0_linear_1797_55431)"/>
<path d="M352.949 537.264C352.328 531.547 351.114 528.85 347.258 524.589C350.168 523.282 351.623 522.628 354.535 521.321C358.392 525.584 359.604 528.282 360.227 533.996C357.316 535.303 355.863 535.955 352.949 537.264Z" fill="url(#paint1_linear_1797_55431)"/>
<path d="M233.911 490.827C236.35 495.641 238.307 497.609 243.107 500.075C240.983 502.187 239.921 503.245 237.796 505.354C232.997 502.888 231.042 500.922 228.601 496.104C230.725 493.992 231.787 492.939 233.911 490.827Z" fill="url(#paint2_linear_1797_55431)"/>
<path d="M266.254 30.1727C267.875 30.7111 268.758 30.7154 270.386 30.1981C270.382 31.1482 270.377 31.6233 270.373 32.5713C268.743 33.0886 267.863 33.0823 266.239 32.5439C266.243 31.5958 266.247 31.1208 266.254 30.1727Z" fill="url(#paint3_linear_1797_55431)"/>
<path d="M48.7627 21.9929C46.7293 18.6737 45.2069 17.3751 41.613 15.8823C43.0151 14.2396 43.7161 13.4204 45.1203 11.7798C48.7163 13.2705 50.2366 14.5711 52.27 17.8882C50.8658 19.5309 50.1648 20.3523 48.7627 21.9929Z" fill="url(#paint4_linear_1797_55431)"/>
<path d="M116.685 8.46509C119.641 10.9291 121.476 11.6682 125.315 11.9321C124.521 13.9126 124.122 14.9029 123.326 16.8834C119.485 16.6237 117.65 15.8847 114.694 13.4185C115.49 11.4359 115.889 10.4456 116.685 8.46509Z" fill="url(#paint5_linear_1797_55431)"/>
<path d="M102.216 97.997C100.427 102.315 100.239 104.709 101.327 109.253C98.7424 109.05 97.4501 108.947 94.8656 108.742C93.7803 104.2 93.9682 101.804 95.7546 97.4882C98.3391 97.693 99.6314 97.7943 102.216 97.9991V97.997Z" fill="url(#paint6_linear_1797_55431)"/>
<path d="M208.756 84.2936C210.581 79.6654 210.737 77.1105 209.495 72.2943C212.251 72.4653 213.628 72.5519 216.383 72.7187C217.625 77.537 217.466 80.0898 215.644 84.7181C212.889 84.5491 211.512 84.4647 208.756 84.2936Z" fill="url(#paint7_linear_1797_55431)"/>
<path d="M198.441 157.291C194.776 160.111 193.431 162.071 192.117 166.505C190.004 165.052 188.946 164.328 186.83 162.873C188.141 158.441 189.489 156.482 193.154 153.661C195.268 155.114 196.326 155.84 198.441 157.291Z" fill="url(#paint8_linear_1797_55431)"/>
<path d="M302.242 199.783C305.467 196.033 306.453 193.685 306.862 188.757C309.394 189.817 310.661 190.347 313.193 191.409C312.783 196.339 311.799 198.685 308.575 202.437C306.043 201.375 304.776 200.847 302.244 199.785L302.242 199.783Z" fill="url(#paint9_linear_1797_55431)"/>
<path d="M352.404 34.4022C353.3 36.993 354.148 38.1163 356.395 39.6914C355.179 40.6078 354.573 41.0638 353.359 41.9802C351.112 40.4093 350.265 39.2839 349.368 36.691C350.582 35.7747 351.19 35.3186 352.404 34.4022Z" fill="url(#paint10_linear_1797_55431)"/>
<path d="M251.338 159.649C252.047 160.926 252.601 161.439 253.922 162.058C253.369 162.651 253.093 162.949 252.541 163.544C251.215 162.926 250.662 162.413 249.953 161.135C250.506 160.542 250.782 160.242 251.338 159.649Z" fill="url(#paint11_linear_1797_55431)"/>
<path d="M252.053 216.166C247.801 213.628 245.315 213.062 240.383 213.506C240.995 210.826 241.299 209.486 241.909 206.804C246.842 206.363 249.327 206.931 253.58 209.464C252.968 212.144 252.664 213.485 252.051 216.166H252.053Z" fill="url(#paint12_linear_1797_55431)"/>
<path d="M243.941 448.318C243.941 448.318 250.985 449.374 250.84 441.634C250.84 441.634 250.582 437.789 233.582 424.313L225.197 424.13L224.247 425.625C224.038 425.071 223.957 425.861 227.213 428.72C230.229 431.366 239.674 438.766 243.941 448.32V448.318Z" fill="url(#paint13_linear_1797_55431)"/>
<path d="M214.209 443.553C214.209 443.553 212.123 445.018 210.248 451.79C210.248 451.79 213.451 448.893 219.836 450.742C226.215 452.592 238.787 457.011 244.63 453.268C244.63 453.268 246.347 452.311 247.797 450.637C249.176 449.047 251.475 444.767 250.84 441.636C250.84 441.636 251.549 447.582 241.741 447.655C236.604 447.696 217.37 443.04 214.209 443.553Z" fill="url(#paint14_linear_1797_55431)"/>
<path d="M257.685 422.654C257.685 422.654 264.729 423.709 264.584 415.969C264.584 415.969 264.326 412.124 247.326 398.649L241.312 397.185L237.991 399.958C237.782 399.405 237.702 400.192 240.96 403.051C243.975 405.697 253.418 413.097 257.685 422.652V422.654Z" fill="url(#paint15_linear_1797_55431)"/>
<path d="M227.951 417.887C227.951 417.887 225.864 419.352 223.991 426.123C223.991 426.123 227.197 423.224 233.58 425.076C239.961 426.926 252.531 431.345 258.374 427.603C258.374 427.603 260.09 426.643 261.541 424.968C262.92 423.378 265.217 419.099 264.584 415.967C264.584 415.967 265.293 421.915 255.485 421.989C250.348 422.029 231.112 417.373 227.953 417.884L227.951 417.887Z" fill="url(#paint16_linear_1797_55431)"/>
<path d="M241.912 391.88C241.912 391.88 239.826 393.345 237.953 400.116C237.953 400.116 241.158 397.219 247.541 399.071C253.922 400.921 266.492 405.338 272.337 401.599L274.413 395.245C273.167 395.684 271.55 395.97 269.447 395.984C264.311 396.024 245.075 391.369 241.912 391.88Z" fill="url(#paint17_linear_1797_55431)"/>
</g>
</g>
<defs>
<linearGradient id="paint0_linear_1797_55431" x1="249.796" y1="697.2" x2="262.242" y2="697.2" gradientUnits="userSpaceOnUse">
<stop stop-color="#CE38BF"/>
<stop offset="0.73" stop-color="#E051CA"/>
<stop offset="1" stop-color="#E85CCF"/>
</linearGradient>
<linearGradient id="paint1_linear_1797_55431" x1="351.055" y1="521.055" x2="357.11" y2="536.498" gradientUnits="userSpaceOnUse">
<stop stop-color="#CE38BF"/>
<stop offset="0.73" stop-color="#E051CA"/>
<stop offset="1" stop-color="#E85CCF"/>
</linearGradient>
<linearGradient id="paint2_linear_1797_55431" x1="229.251" y1="491.879" x2="244.39" y2="507.928" gradientUnits="userSpaceOnUse">
<stop stop-color="#CE38BF"/>
<stop offset="0.73" stop-color="#E051CA"/>
<stop offset="1" stop-color="#E85CCF"/>
</linearGradient>
<linearGradient id="paint3_linear_1797_55431" x1="266.239" y1="31.5642" x2="270.386" y2="31.5642" gradientUnits="userSpaceOnUse">
<stop stop-color="#CE38BF"/>
<stop offset="0.73" stop-color="#E051CA"/>
<stop offset="1" stop-color="#E85CCF"/>
</linearGradient>
<linearGradient id="paint4_linear_1797_55431" x1="41.613" y1="16.8853" x2="52.27" y2="16.8853" gradientUnits="userSpaceOnUse">
<stop stop-color="#CE38BF"/>
<stop offset="0.73" stop-color="#E051CA"/>
<stop offset="1" stop-color="#E85CCF"/>
</linearGradient>
<linearGradient id="paint5_linear_1797_55431" x1="114.694" y1="12.6753" x2="125.315" y2="12.6753" gradientUnits="userSpaceOnUse">
<stop stop-color="#CE38BF"/>
<stop offset="0.73" stop-color="#E051CA"/>
<stop offset="1" stop-color="#E85CCF"/>
</linearGradient>
<linearGradient id="paint6_linear_1797_55431" x1="99.1436" y1="95.6301" x2="97.3278" y2="109.559" gradientUnits="userSpaceOnUse">
<stop stop-color="#CE38BF"/>
<stop offset="0.73" stop-color="#E051CA"/>
<stop offset="1" stop-color="#E85CCF"/>
</linearGradient>
<linearGradient id="paint7_linear_1797_55431" x1="208.756" y1="78.5062" x2="217.19" y2="78.5062" gradientUnits="userSpaceOnUse">
<stop stop-color="#CE38BF"/>
<stop offset="0.73" stop-color="#E051CA"/>
<stop offset="1" stop-color="#E85CCF"/>
</linearGradient>
<linearGradient id="paint8_linear_1797_55431" x1="197.293" y1="152.139" x2="188.509" y2="165.464" gradientUnits="userSpaceOnUse">
<stop stop-color="#CE38BF"/>
<stop offset="0.73" stop-color="#E051CA"/>
<stop offset="1" stop-color="#E85CCF"/>
</linearGradient>
<linearGradient id="paint9_linear_1797_55431" x1="311.444" y1="188.641" x2="304.177" y2="204.388" gradientUnits="userSpaceOnUse">
<stop stop-color="#CE38BF"/>
<stop offset="0.73" stop-color="#E051CA"/>
<stop offset="1" stop-color="#E85CCF"/>
</linearGradient>
<linearGradient id="paint10_linear_1797_55431" x1="357.677" y1="43.9185" x2="346.165" y2="30.8925" gradientUnits="userSpaceOnUse">
<stop stop-color="#CE38BF"/>
<stop offset="0.73" stop-color="#E051CA"/>
<stop offset="1" stop-color="#E85CCF"/>
</linearGradient>
<linearGradient id="paint11_linear_1797_55431" x1="249.953" y1="161.596" x2="253.922" y2="161.596" gradientUnits="userSpaceOnUse">
<stop stop-color="#CE38BF"/>
<stop offset="0.73" stop-color="#E051CA"/>
<stop offset="1" stop-color="#E85CCF"/>
</linearGradient>
<linearGradient id="paint12_linear_1797_55431" x1="240.383" y1="211.417" x2="253.58" y2="211.417" gradientUnits="userSpaceOnUse">
<stop stop-color="#CE38BF"/>
<stop offset="0.73" stop-color="#E051CA"/>
<stop offset="1" stop-color="#E85CCF"/>
</linearGradient>
<linearGradient id="paint13_linear_1797_55431" x1="223.458" y1="426.521" x2="251.009" y2="444.026" gradientUnits="userSpaceOnUse">
<stop stop-color="#5C5894"/>
<stop offset="0.47" stop-color="#6862C1"/>
<stop offset="1" stop-color="#7E78E1"/>
</linearGradient>
<linearGradient id="paint14_linear_1797_55431" x1="214.078" y1="441.775" x2="251.654" y2="452.883" gradientUnits="userSpaceOnUse">
<stop stop-color="#7E78E1"/>
<stop offset="0.09" stop-color="#7068DC"/>
<stop offset="0.18" stop-color="#6661B8"/>
<stop offset="0.26" stop-color="#6560B6"/>
<stop offset="0.29" stop-color="#635EAF"/>
<stop offset="0.3" stop-color="#625DA9"/>
<stop offset="0.31" stop-color="#6661B9"/>
<stop offset="0.32" stop-color="#6B65CA"/>
<stop offset="0.34" stop-color="#6F68D6"/>
<stop offset="0.36" stop-color="#716ADD"/>
<stop offset="0.43" stop-color="#726BDF"/>
<stop offset="0.49" stop-color="#716ADD"/>
<stop offset="0.51" stop-color="#6E67D6"/>
<stop offset="0.52" stop-color="#6A63CA"/>
<stop offset="0.53" stop-color="#6A63C8"/>
<stop offset="0.58" stop-color="#6B64C9"/>
<stop offset="0.61" stop-color="#726BCE"/>
<stop offset="0.62" stop-color="#7D77D6"/>
<stop offset="0.63" stop-color="#8E88E2"/>
<stop offset="0.64" stop-color="#948EE7"/>
<stop offset="0.69" stop-color="#928CE6"/>
<stop offset="0.71" stop-color="#8B85E4"/>
<stop offset="0.72" stop-color="#7E78E1"/>
<stop offset="0.9" stop-color="#645EB1"/>
<stop offset="1" stop-color="#5F5A9C"/>
</linearGradient>
<linearGradient id="paint15_linear_1797_55431" x1="237.2" y1="400.857" x2="264.751" y2="418.363" gradientUnits="userSpaceOnUse">
<stop stop-color="#5C5894"/>
<stop offset="0.47" stop-color="#6862C1"/>
<stop offset="1" stop-color="#7E78E1"/>
</linearGradient>
<linearGradient id="paint16_linear_1797_55431" x1="227.82" y1="416.112" x2="265.396" y2="427.218" gradientUnits="userSpaceOnUse">
<stop stop-color="#7E78E1"/>
<stop offset="0.09" stop-color="#7068DC"/>
<stop offset="0.18" stop-color="#6661B8"/>
<stop offset="0.26" stop-color="#6560B6"/>
<stop offset="0.29" stop-color="#635EAF"/>
<stop offset="0.3" stop-color="#625DA9"/>
<stop offset="0.31" stop-color="#6661B9"/>
<stop offset="0.32" stop-color="#6B65CA"/>
<stop offset="0.34" stop-color="#6F68D6"/>
<stop offset="0.36" stop-color="#716ADD"/>
<stop offset="0.43" stop-color="#726BDF"/>
<stop offset="0.49" stop-color="#716ADD"/>
<stop offset="0.51" stop-color="#6E67D6"/>
<stop offset="0.52" stop-color="#6A63CA"/>
<stop offset="0.53" stop-color="#6A63C8"/>
<stop offset="0.58" stop-color="#6B64C9"/>
<stop offset="0.61" stop-color="#726BCE"/>
<stop offset="0.62" stop-color="#7D77D6"/>
<stop offset="0.63" stop-color="#8E88E2"/>
<stop offset="0.64" stop-color="#948EE7"/>
<stop offset="0.69" stop-color="#928CE6"/>
<stop offset="0.71" stop-color="#8B85E4"/>
<stop offset="0.72" stop-color="#7E78E1"/>
<stop offset="0.9" stop-color="#645EB1"/>
<stop offset="1" stop-color="#5F5A9C"/>
</linearGradient>
<linearGradient id="paint17_linear_1797_55431" x1="240.826" y1="393.075" x2="275.098" y2="403.208" gradientUnits="userSpaceOnUse">
<stop stop-color="#7E78E1"/>
<stop offset="0.09" stop-color="#7068DC"/>
<stop offset="0.18" stop-color="#6661B8"/>
<stop offset="0.26" stop-color="#6560B6"/>
<stop offset="0.29" stop-color="#635EAF"/>
<stop offset="0.3" stop-color="#625DA9"/>
<stop offset="0.31" stop-color="#6661B9"/>
<stop offset="0.32" stop-color="#6B65CA"/>
<stop offset="0.34" stop-color="#6F68D6"/>
<stop offset="0.36" stop-color="#716ADD"/>
<stop offset="0.43" stop-color="#726BDF"/>
<stop offset="0.49" stop-color="#716ADD"/>
<stop offset="0.51" stop-color="#6E67D6"/>
<stop offset="0.52" stop-color="#6A63CA"/>
<stop offset="0.53" stop-color="#6A63C8"/>
<stop offset="0.58" stop-color="#6B64C9"/>
<stop offset="0.61" stop-color="#726BCE"/>
<stop offset="0.62" stop-color="#7D77D6"/>
<stop offset="0.63" stop-color="#8E88E2"/>
<stop offset="0.64" stop-color="#948EE7"/>
<stop offset="0.69" stop-color="#928CE6"/>
<stop offset="0.71" stop-color="#8B85E4"/>
<stop offset="0.72" stop-color="#7E78E1"/>
<stop offset="0.9" stop-color="#645EB1"/>
<stop offset="1" stop-color="#5F5A9C"/>
</linearGradient>
<clipPath id="clip0_1797_55431">
<rect width="390" height="844" fill="white"/>
</clipPath>
</defs>
</svg>
