<svg width="20" height="20" viewBox="0 0 20 20" fill="none" xmlns="http://www.w3.org/2000/svg">
<path d="M14.6875 1.25C15.4232 1.25 16.1133 1.38672 16.7578 1.66016C17.4023 1.93359 17.9622 2.3112 18.4375 2.79297C18.9128 3.27474 19.2904 3.83789 19.5703 4.48242C19.8503 5.12695 19.9902 5.81706 19.9902 6.55273C19.9902 6.93034 19.9512 7.30469 19.873 7.67578C19.7949 8.04688 19.6777 8.40495 19.5215 8.75H15L13.125 6.79688L10 9.92188L5.625 5.54688L2.5 8.75H0.478516C0.322266 8.40495 0.205078 8.04688 0.126953 7.67578C0.0488281 7.30469 0.00976562 6.93034 0.00976562 6.55273C0.00976562 5.81706 0.146484 5.12695 0.419922 4.48242C0.693359 3.83789 1.07096 3.27799 1.55273 2.80273C2.03451 2.32747 2.59766 1.94987 3.24219 1.66992C3.88672 1.38997 4.57682 1.25 5.3125 1.25C6.02214 1.25 6.69922 1.38346 7.34375 1.65039C7.98828 1.91732 8.56445 2.30143 9.07227 2.80273L10 3.74023L10.9277 2.80273C11.429 2.30143 12.002 1.91732 12.6465 1.65039C13.291 1.38346 13.9714 1.25 14.6875 1.25ZM13.75 10H18.7305L18.5938 10.1562C18.5482 10.2083 18.4993 10.2637 18.4473 10.3223L10 18.7598L1.55273 10.3223C1.50065 10.2702 1.45182 10.2181 1.40625 10.166C1.36068 10.1139 1.3151 10.0586 1.26953 10H3.75L5.625 8.20312L10 12.5781L13.125 9.45312L13.75 10Z" fill="#041578"/>
</svg>
