<svg width="44" height="44" viewBox="0 0 44 44" fill="none" xmlns="http://www.w3.org/2000/svg">
<rect width="44" height="44" rx="8" fill="#FEE9E9"/>
<path d="M30.3799 31.13C30.1799 31.13 29.9899 31.05 29.8499 30.91L23.4699 24.53C23.1799 24.24 23.1799 23.76 23.4699 23.47L31.2 15.74C31.39 15.55 31.6799 15.48 31.9399 15.55C32.1999 15.63 32.3999 15.84 32.4599 16.1C32.6499 16.95 32.7499 17.9 32.7499 19V25C32.7499 27.77 32.1699 29.64 30.9099 30.91C30.7699 31.05 30.5599 31.08 30.3799 31.13ZM25.0599 24L30.3199 29.26C30.9499 28.29 31.2499 26.91 31.2499 25V19C31.2499 18.59 31.2399 18.21 31.2099 17.85L25.0599 24Z" fill="#F52424"/>
<path d="M16.27 32.48C16.21 32.48 16.16 32.47 16.1 32.46C12.79 31.7 11.25 29.33 11.25 25V19C11.25 13.57 13.57 11.25 19 11.25H25C29.33 11.25 31.7 12.79 32.46 16.1C32.52 16.35 32.44 16.62 32.26 16.8L16.8 32.26C16.66 32.4 16.47 32.48 16.27 32.48ZM19 12.75C14.39 12.75 12.75 14.39 12.75 19V25C12.75 28.47 13.71 30.21 16.04 30.9L30.89 16.05C30.21 13.72 28.46 12.76 24.99 12.76H19V12.75Z" fill="#F52424"/>
<path d="M24.9999 32.7504H18.9999C17.8999 32.7504 16.9599 32.6604 16.0999 32.4604C15.8299 32.4004 15.6199 32.2004 15.5499 31.9404C15.4699 31.6804 15.5499 31.4004 15.7399 31.2004L23.4699 23.4704C23.7599 23.1804 24.2399 23.1804 24.5299 23.4704L30.9099 29.8504C31.0499 29.9904 31.1299 30.1804 31.1299 30.3804C31.1299 30.5804 31.0499 30.7704 30.9099 30.9104C29.6399 32.1704 27.7699 32.7504 24.9999 32.7504ZM17.8499 31.2104C18.2099 31.2404 18.5899 31.2504 18.9999 31.2504H24.9999C26.9199 31.2504 28.2899 30.9504 29.2599 30.3204L23.9999 25.0604L17.8499 31.2104Z" fill="#F52424"/>
<path d="M19.1199 23.31C18.4899 23.31 17.8599 23.08 17.3599 22.61C15.7699 21.1 15.13 19.4401 15.51 17.8201C15.89 16.1601 17.3399 15.04 19.1199 15.04C20.8999 15.04 22.35 16.1601 22.73 17.8201C23.1 19.4501 22.4599 21.1 20.8699 22.61C20.3799 23.07 19.7499 23.31 19.1199 23.31ZM16.9699 18.15C16.6499 19.51 17.5699 20.7301 18.3999 21.5201C18.8099 21.91 19.4399 21.91 19.8399 21.5201C20.6599 20.7401 21.5799 19.52 21.2699 18.15C20.9999 16.96 19.9399 16.53 19.1199 16.53C18.2999 16.53 17.2499 16.96 16.9699 18.15Z" fill="#F52424"/>
<path d="M19.1499 19.4902C18.5999 19.4902 18.1499 19.0402 18.1499 18.4902C18.1499 17.9402 18.5899 17.4902 19.1499 17.4902H19.1599C19.7099 17.4902 20.1599 17.9402 20.1599 18.4902C20.1599 19.0402 19.6999 19.4902 19.1499 19.4902Z" fill="#F52424"/>
</svg>
