<svg width="44" height="44" viewBox="0 0 44 44" fill="none" xmlns="http://www.w3.org/2000/svg">
<rect width="44" height="44" rx="8" fill="#FEE9E9"/>
<path d="M18 15.75C17.59 15.75 17.25 15.41 17.25 15V12C17.25 11.59 17.59 11.25 18 11.25C18.41 11.25 18.75 11.59 18.75 12V15C18.75 15.41 18.41 15.75 18 15.75Z" fill="#F52424"/>
<path d="M26 15.75C25.59 15.75 25.25 15.41 25.25 15V12C25.25 11.59 25.59 11.25 26 11.25C26.41 11.25 26.75 11.59 26.75 12V15C26.75 15.41 26.41 15.75 26 15.75Z" fill="#F52424"/>
<path d="M30.5 19.8398H13.5C13.09 19.8398 12.75 19.4998 12.75 19.0898C12.75 18.6798 13.09 18.3398 13.5 18.3398H30.5C30.91 18.3398 31.25 18.6798 31.25 19.0898C31.25 19.4998 30.91 19.8398 30.5 19.8398Z" fill="#F52424"/>
<path d="M26 32.75H18C14.35 32.75 12.25 30.65 12.25 27V18.5C12.25 14.85 14.35 12.75 18 12.75H26C29.65 12.75 31.75 14.85 31.75 18.5V27C31.75 30.65 29.65 32.75 26 32.75ZM18 14.25C15.14 14.25 13.75 15.64 13.75 18.5V27C13.75 29.86 15.14 31.25 18 31.25H26C28.86 31.25 30.25 29.86 30.25 27V18.5C30.25 15.64 28.86 14.25 26 14.25H18Z" fill="#F52424"/>
<path d="M18.5 24.5C18.37 24.5 18.24 24.47 18.12 24.42C18 24.37 17.89 24.3 17.79 24.21C17.7 24.11 17.63 24 17.58 23.88C17.53 23.76 17.5 23.63 17.5 23.5C17.5 23.24 17.61 22.98 17.79 22.79C17.89 22.7 18 22.63 18.12 22.58C18.3 22.5 18.5 22.48 18.7 22.52C18.76 22.53 18.82 22.55 18.88 22.58C18.94 22.6 19 22.63 19.06 22.67C19.11 22.71 19.16 22.75 19.21 22.79C19.25 22.84 19.3 22.89 19.33 22.94C19.37 23 19.4 23.06 19.42 23.12C19.45 23.18 19.47 23.24 19.48 23.3C19.49 23.37 19.5 23.43 19.5 23.5C19.5 23.76 19.39 24.02 19.21 24.21C19.02 24.39 18.76 24.5 18.5 24.5Z" fill="#F52424"/>
<path d="M22 24.4999C21.74 24.4999 21.48 24.3899 21.29 24.2099C21.25 24.1599 21.21 24.1099 21.17 24.0599C21.13 23.9999 21.1 23.9399 21.08 23.8799C21.05 23.8199 21.03 23.7599 21.02 23.6999C21.01 23.6299 21 23.5699 21 23.4999C21 23.3699 21.03 23.2399 21.08 23.1199C21.13 22.9999 21.2 22.8899 21.29 22.7899C21.57 22.5099 22.02 22.4199 22.38 22.5799C22.51 22.6299 22.61 22.6999 22.71 22.7899C22.89 22.9799 23 23.2399 23 23.4999C23 23.5699 22.99 23.6299 22.98 23.6999C22.97 23.7599 22.95 23.8199 22.92 23.8799C22.9 23.9399 22.87 23.9999 22.83 24.0599C22.79 24.1099 22.75 24.1599 22.71 24.2099C22.61 24.2999 22.51 24.3699 22.38 24.4199C22.26 24.4699 22.13 24.4999 22 24.4999Z" fill="#F52424"/>
<path d="M18.5 27.9999C18.37 27.9999 18.24 27.9699 18.12 27.9199C18 27.8699 17.89 27.7999 17.79 27.7099C17.7 27.6099 17.63 27.5099 17.58 27.3799C17.53 27.2599 17.5 27.1299 17.5 26.9999C17.5 26.7399 17.61 26.4799 17.79 26.2899C17.89 26.1999 18 26.1299 18.12 26.0799C18.49 25.9199 18.93 26.0099 19.21 26.2899C19.25 26.3399 19.3 26.3899 19.33 26.4399C19.37 26.4999 19.4 26.5599 19.42 26.6199C19.45 26.6799 19.47 26.7399 19.48 26.8099C19.49 26.8699 19.5 26.9399 19.5 26.9999C19.5 27.2599 19.39 27.5199 19.21 27.7099C19.02 27.8899 18.76 27.9999 18.5 27.9999Z" fill="#F52424"/>
</svg>
