<svg width="25" height="24" viewBox="0 0 25 24" fill="none" xmlns="http://www.w3.org/2000/svg">
<path d="M1.21691 11.7344L0.5 12.0383C0.499953 12.22 0.569844 12.4003 0.706203 12.5362L12.0053 23.7957C12.1371 23.9272 12.3636 23.9992 12.4966 23.9998C12.6317 24.0004 12.8628 23.9293 12.9969 23.7956L24.2941 12.529C24.4301 12.3933 24.4999 12.2134 24.5001 12.0321L23.8768 11.7344C23.5292 11.7344 20.3009 11.7344 16.3784 11.7344L12.1723 13.0922L8.61505 11.7344C4.92528 11.7344 1.85206 11.7344 1.21691 11.7344Z" fill="#FFB739"/>
<path d="M24.4998 12.0321C24.4998 12.2133 24.4301 12.3931 24.2938 12.5289L12.9967 23.7955C12.8638 23.9284 12.6348 23.9996 12.5 23.9996V12.9863L16.3784 11.7344H23.8767L24.4998 12.0321Z" fill="#FF9441"/>
<path d="M8.61495 11.7344L12.5 23.9996L16.3783 11.7344H8.61495Z" fill="#FF9441"/>
<path d="M16.3783 11.7344L12.5 23.9996V11.7344H16.3783Z" fill="#FF7149"/>
<path d="M24.3822 11.6418L20.6216 6.00725C20.5695 5.92934 20.5025 5.86315 20.4253 5.81206L20.0844 5.97575L13.1506 6.01896L12.5 5.69482L11.9742 6.02628L5.05602 6.0694L4.57325 5.81276C4.49661 5.86371 4.42981 5.92967 4.37787 6.00762L0.617516 11.6492C0.538344 11.768 0.5 11.9035 0.5 12.0383C1.86223 12.0379 22.7406 12.0324 24.5 12.0319C24.5001 11.8968 24.4617 11.7608 24.3822 11.6418Z" fill="#FFD17E"/>
<path d="M24.4998 12.0321C23.6281 12.0321 18.0605 12.034 12.5 12.0354V5.69482L13.1508 6.01878L20.0845 5.9757L20.4253 5.81182C20.5025 5.86334 20.5695 5.92934 20.6215 6.00706L24.3823 11.6416C24.4619 11.761 24.5003 11.8968 24.4998 12.0321Z" fill="#FFB739"/>
<path d="M4.96218 5.69482C4.82174 5.69482 4.68702 5.73706 4.57339 5.81267L8.73852 12.0361H8.73899L12.4998 5.69482H4.96218Z" fill="#FFB739"/>
<path d="M16.2624 12.0341L20.4252 5.81192C20.3118 5.73678 20.1775 5.69482 20.0375 5.69482H12.4998L16.2594 12.0342H16.2624V12.0341Z" fill="#FF9441"/>
<path d="M8.30112 16.9368C7.12573 16.9368 6.16944 15.9806 6.16944 14.8052C6.16944 14.4169 5.85462 14.1021 5.46631 14.1021C5.078 14.1021 4.76319 14.4169 4.76319 14.8052C4.76319 15.9747 3.8127 16.9368 2.63155 16.9368C2.24323 16.9368 1.92842 17.2516 1.92842 17.6399C1.92842 18.0283 2.24323 18.3431 2.63155 18.3431C3.80694 18.3431 4.76319 19.2993 4.76319 20.4747C4.76319 20.863 5.078 21.1778 5.46631 21.1778C5.85462 21.1778 6.16944 20.863 6.16944 20.4747C6.16944 19.3053 7.11983 18.3431 8.30112 18.3431C8.68944 18.3431 9.00425 18.0283 9.00425 17.6399C9.00425 17.2516 8.68944 16.9368 8.30112 16.9368Z" fill="#FFD17E"/>
<path d="M19.0779 2.83477C17.9025 2.83477 16.9463 1.87852 16.9463 0.703125C16.9463 0.314812 16.6315 0 16.2432 0C15.8548 0 15.54 0.314812 15.54 0.703125C15.54 1.87852 14.5838 2.83477 13.4084 2.83477C13.0201 2.83477 12.7053 3.14958 12.7053 3.53789C12.7053 3.9262 13.0201 4.24102 13.4084 4.24102C14.5838 4.24102 15.54 5.19727 15.54 6.37266C15.54 6.76097 15.8548 7.07578 16.2432 7.07578C16.6315 7.07578 16.9463 6.76097 16.9463 6.37266C16.9463 5.19727 17.9025 4.24102 19.0779 4.24102C19.4662 4.24102 19.781 3.9262 19.781 3.53789C19.781 3.14958 19.4662 2.83477 19.0779 2.83477Z" fill="#FFB739"/>
</svg>
