<svg width="16" height="16" viewBox="0 0 16 16" fill="none" xmlns="http://www.w3.org/2000/svg">
<path d="M8.00001 10.8866C6.40668 10.8866 5.11334 9.59328 5.11334 7.99995C5.11334 6.40661 6.40668 5.11328 8.00001 5.11328C9.59334 5.11328 10.8867 6.40661 10.8867 7.99995C10.8867 9.59328 9.59334 10.8866 8.00001 10.8866ZM8.00001 6.11328C6.96001 6.11328 6.11334 6.95995 6.11334 7.99995C6.11334 9.03995 6.96001 9.88661 8.00001 9.88661C9.04001 9.88661 9.88668 9.03995 9.88668 7.99995C9.88668 6.95995 9.04001 6.11328 8.00001 6.11328Z" fill="#3C4260"/>
<path d="M8 14.013C5.49333 14.013 3.12667 12.5463 1.5 9.99966C0.793335 8.89966 0.793335 7.10633 1.5 5.99966C3.13333 3.45299 5.5 1.98633 8 1.98633C10.5 1.98633 12.8667 3.45299 14.4933 5.99966C15.2 7.09966 15.2 8.893 14.4933 9.99966C12.8667 12.5463 10.5 14.013 8 14.013ZM8 2.98633C5.84667 2.98633 3.78667 4.27966 2.34667 6.53966C1.84667 7.31966 1.84667 8.67966 2.34667 9.45966C3.78667 11.7197 5.84667 13.013 8 13.013C10.1533 13.013 12.2133 11.7197 13.6533 9.45966C14.1533 8.67966 14.1533 7.31966 13.6533 6.53966C12.2133 4.27966 10.1533 2.98633 8 2.98633Z" fill="#292D32"/>
</svg>
