<svg width="16" height="16" viewBox="0 0 16 16" fill="none" xmlns="http://www.w3.org/2000/svg">
<path d="M8 14.4331C7.79333 14.4331 7.59333 14.4064 7.42666 14.3464C4.88 13.4731 0.833328 10.3731 0.833328 5.79307C0.833328 3.45974 2.71999 1.56641 5.04 1.56641C6.16666 1.56641 7.22 2.00641 8 2.79307C8.77999 2.00641 9.83333 1.56641 10.96 1.56641C13.28 1.56641 15.1667 3.46641 15.1667 5.79307C15.1667 10.3797 11.12 13.4731 8.57333 14.3464C8.40666 14.4064 8.20666 14.4331 8 14.4331ZM5.04 2.56641C3.27333 2.56641 1.83333 4.01307 1.83333 5.79307C1.83333 10.3464 6.21333 12.8797 7.75333 13.4064C7.87333 13.4464 8.13333 13.4464 8.25333 13.4064C9.78666 12.8797 14.1733 10.3531 14.1733 5.79307C14.1733 4.01307 12.7333 2.56641 10.9667 2.56641C9.95333 2.56641 9.01333 3.03974 8.40666 3.85974C8.22 4.11307 7.79333 4.11307 7.60666 3.85974C6.98666 3.03307 6.05333 2.56641 5.04 2.56641Z" fill="#3C4260"/>
</svg>
