<svg width="16" height="16" viewBox="0 0 16 16" fill="none" xmlns="http://www.w3.org/2000/svg">
<path d="M9.48 14.4196C8.69334 14.4196 7.58 13.8662 6.7 11.2196L6.22 9.77956L4.78 9.29956C2.14 8.41956 1.58667 7.30623 1.58667 6.51956C1.58667 5.73956 2.14 4.61956 4.78 3.73289L10.44 1.84623C11.8533 1.37289 13.0333 1.51289 13.76 2.23289C14.4867 2.95289 14.6267 4.13956 14.1533 5.55289L12.2667 11.2129C11.38 13.8662 10.2667 14.4196 9.48 14.4196ZM5.09334 4.68623C3.24 5.30623 2.58 6.03956 2.58 6.51956C2.58 6.99956 3.24 7.73289 5.09334 8.34623L6.77334 8.90623C6.92 8.95289 7.04 9.07289 7.08667 9.21956L7.64667 10.8996C8.26 12.7529 9 13.4129 9.48 13.4129C9.96 13.4129 10.6933 12.7529 11.3133 10.8996L13.2 5.23956C13.54 4.21289 13.48 3.37289 13.0467 2.93956C12.6133 2.50623 11.7733 2.45289 10.7533 2.79289L5.09334 4.68623Z" fill="#3C4260"/>
<path d="M6.74 9.59967C6.61334 9.59967 6.48667 9.55301 6.38667 9.45301C6.19334 9.25968 6.19334 8.93967 6.38667 8.74634L8.77334 6.35301C8.96667 6.15967 9.28667 6.15967 9.48 6.35301C9.67334 6.54634 9.67334 6.86634 9.48 7.05967L7.09334 9.45301C7 9.55301 6.86667 9.59967 6.74 9.59967Z" fill="#3C4260"/>
</svg>
