<svg width="16" height="16" viewBox="0 0 16 16" fill="none" xmlns="http://www.w3.org/2000/svg">
<path d="M6.10641 7.74634C6.08641 7.74634 6.07307 7.74634 6.05307 7.74634C6.01974 7.73967 5.97307 7.73967 5.93307 7.74634C3.99974 7.68634 2.53974 6.16634 2.53974 4.29301C2.53974 2.38634 4.09307 0.833008 5.99974 0.833008C7.90641 0.833008 9.45974 2.38634 9.45974 4.29301C9.45307 6.16634 7.98641 7.68634 6.12641 7.74634C6.11974 7.74634 6.11307 7.74634 6.10641 7.74634ZM5.99974 1.83301C4.64641 1.83301 3.53974 2.93967 3.53974 4.29301C3.53974 5.62634 4.57974 6.69967 5.90641 6.74634C5.94641 6.73967 6.03307 6.73967 6.11974 6.74634C7.42641 6.68634 8.45307 5.61301 8.45974 4.29301C8.45974 2.93967 7.35307 1.83301 5.99974 1.83301Z" fill="#3C4260"/>
<path d="M11.0264 7.83366C11.0064 7.83366 10.9864 7.83366 10.9664 7.82699C10.6931 7.85366 10.4131 7.66033 10.3864 7.38699C10.3597 7.11366 10.5264 6.86699 10.7997 6.83366C10.8797 6.82699 10.9664 6.82699 11.0397 6.82699C12.0131 6.77366 12.7731 5.97366 12.7731 4.99366C12.7731 3.98033 11.9531 3.16033 10.9397 3.16033C10.6664 3.16699 10.4397 2.94033 10.4397 2.66699C10.4397 2.39366 10.6664 2.16699 10.9397 2.16699C12.4997 2.16699 13.7731 3.44033 13.7731 5.00033C13.7731 6.53366 12.5731 7.77366 11.0464 7.83366C11.0397 7.83366 11.0331 7.83366 11.0264 7.83366Z" fill="#3C4260"/>
<path d="M6.11307 15.0337C4.80641 15.0337 3.49307 14.7003 2.49974 14.0337C1.57307 13.4203 1.06641 12.5803 1.06641 11.667C1.06641 10.7537 1.57307 9.90699 2.49974 9.28699C4.49974 7.96033 7.73974 7.96033 9.72641 9.28699C10.6464 9.90033 11.1597 10.7403 11.1597 11.6537C11.1597 12.567 10.6531 13.4137 9.72641 14.0337C8.72641 14.7003 7.41974 15.0337 6.11307 15.0337ZM3.05307 10.127C2.41307 10.5537 2.06641 11.1003 2.06641 11.6737C2.06641 12.2403 2.41974 12.787 3.05307 13.207C4.71307 14.3203 7.51307 14.3203 9.17307 13.207C9.81307 12.7803 10.1597 12.2337 10.1597 11.6603C10.1597 11.0937 9.80641 10.547 9.17307 10.127C7.51307 9.02033 4.71307 9.02033 3.05307 10.127Z" fill="#292D32"/>
<path d="M12.2264 13.8333C11.9931 13.8333 11.7864 13.6733 11.7397 13.4333C11.6864 13.16 11.8597 12.9 12.1264 12.84C12.5464 12.7533 12.9331 12.5867 13.2331 12.3533C13.6131 12.0667 13.8197 11.7067 13.8197 11.3267C13.8197 10.9467 13.6131 10.5867 13.2397 10.3067C12.9464 10.08 12.5797 9.92001 12.1464 9.82001C11.8797 9.76001 11.7064 9.49335 11.7664 9.22001C11.8264 8.95335 12.0931 8.78001 12.3664 8.84001C12.9397 8.96668 13.4397 9.19335 13.8464 9.50668C14.4664 9.97335 14.8197 10.6333 14.8197 11.3267C14.8197 12.02 14.4597 12.68 13.8397 13.1533C13.4264 13.4733 12.9064 13.7067 12.3331 13.82C12.2931 13.8333 12.2597 13.8333 12.2264 13.8333Z" fill="#292D32"/>
</svg>
