<svg width="161" height="161" viewBox="0 0 161 161" fill="none" xmlns="http://www.w3.org/2000/svg">
<g clip-path="url(#clip0_1875_48577)">
<path d="M158.119 114.09L147.318 81.2809C146.911 80.0438 145.577 79.3709 144.34 79.7781C143.103 80.1853 142.43 81.5186 142.838 82.7557L153.01 113.656C152.706 113.611 152.397 113.58 152.08 113.58H142.955L130.907 76.9858V52.915H131.826C132.536 52.915 133.163 53.3681 133.385 54.0426L139.198 71.7001C139.524 72.6925 140.447 73.3218 141.438 73.3218C141.682 73.3218 141.931 73.2834 142.176 73.2029C143.413 72.7957 144.086 71.4624 143.678 70.2253L137.865 52.5679C137.005 49.9544 134.578 48.1985 131.827 48.1985H96.5809C91.9424 45.2027 86.4209 43.4619 80.5 43.4619C74.5792 43.4619 69.0577 45.2027 64.4192 48.1985H29.1734C26.422 48.1985 23.9953 49.9544 23.1347 52.5682L2.88075 114.09C2.66912 114.732 2.56189 115.401 2.56189 116.078V132.877C2.56189 134.179 3.61782 135.235 4.92029 135.235C6.22275 135.235 7.27869 134.179 7.27869 132.877V119.938C7.27869 119.033 8.01482 118.297 8.9195 118.297H38.447C39.0693 118.297 39.6482 118.658 39.9211 119.218L45.7234 131.098C46.7819 133.265 49.0242 134.666 51.4361 134.666H109.564C111.976 134.666 114.218 133.265 115.276 131.098L121.079 119.218C121.352 118.659 121.93 118.297 122.553 118.297H152.08C152.985 118.297 153.721 119.033 153.721 119.938V154.642C153.721 155.547 152.985 156.283 152.08 156.283H8.9195C8.01482 156.283 7.27869 155.547 7.27869 154.642V144.52C7.27869 143.218 6.22275 142.162 4.92029 142.162C3.61782 142.162 2.56189 143.218 2.56189 144.52V154.642C2.56189 158.148 5.41398 161 8.9195 161H152.081C155.586 161 158.438 158.148 158.438 154.642V116.078C158.438 115.402 158.331 114.733 158.119 114.09ZM126.191 72.4237C125.726 72.3161 125.244 72.2573 124.751 72.2573H110.207C109.978 64.7954 106.984 58.0179 102.218 52.915H126.191V72.4237ZM50.7927 72.2576H36.2496C35.7565 72.2576 35.2744 72.3161 34.8094 72.424V52.9153H58.7823C54.0165 58.0183 51.0226 64.7957 50.7927 72.2576ZM7.98935 113.656L27.615 54.0429C27.837 53.3684 28.4634 52.9153 29.1734 52.9153H30.0926V76.9864L18.0452 113.58H8.9195C8.60285 113.58 8.29405 113.611 7.98935 113.656ZM116.84 117.148L111.038 129.028C110.765 129.587 110.186 129.949 109.563 129.949H51.4364C50.8141 129.949 50.2355 129.587 49.9622 129.028L44.16 117.148C43.1015 114.981 40.8591 113.58 38.4473 113.58H23.0114L34.6915 78.1021C34.9135 77.4276 35.5398 76.9744 36.2499 76.9744H51.0213C51.7251 82.423 53.9328 87.619 57.4119 91.9044C61.6278 97.0976 67.5263 100.753 74.0207 102.198C75.2921 102.479 76.5524 101.679 76.8351 100.407C77.1178 99.1362 76.3166 97.8761 75.0449 97.5931C69.5841 96.3784 64.6224 93.3021 61.0741 88.9312C57.4758 84.4987 55.4938 78.9064 55.4938 73.185C55.4938 59.3962 66.7116 48.1784 80.5 48.1784C94.2885 48.1784 105.506 59.3962 105.506 73.185C105.506 84.9392 97.1717 95.2291 85.6888 97.6513C84.4144 97.9202 83.599 99.1711 83.8678 100.446C84.1021 101.556 85.0816 102.318 86.1731 102.318C86.3344 102.318 86.4982 102.301 86.6621 102.267C93.2316 100.881 99.2075 97.2438 103.489 92.0257C107.026 87.7149 109.268 82.4755 109.978 76.9744H124.75C125.46 76.9744 126.086 77.4276 126.308 78.1021L137.989 113.58H122.553C120.141 113.58 117.899 114.981 116.84 117.148Z" fill="#041578"/>
<path d="M16.9529 150.118H25.5834C26.8858 150.118 27.9418 149.062 27.9418 147.759C27.9418 146.457 26.8858 145.401 25.5834 145.401H16.9529C15.6504 145.401 14.5945 146.457 14.5945 147.759C14.5945 149.062 15.6504 150.118 16.9529 150.118Z" fill="#041578"/>
<path d="M16.9529 142.75H25.5834C26.8858 142.75 27.9418 141.695 27.9418 140.392C27.9418 139.09 26.8858 138.034 25.5834 138.034H16.9529C15.6504 138.034 14.5945 139.09 14.5945 140.392C14.5945 141.695 15.6504 142.75 16.9529 142.75Z" fill="#041578"/>
<path d="M85.9382 83.6898C86.6045 83.6898 87.2668 83.409 87.7331 82.8624C88.5787 81.8719 88.4611 80.383 87.4705 79.5374C85.5259 77.8777 82.9437 76.9592 80.1988 76.9507C77.4587 76.9447 74.8663 77.8456 72.912 79.494C71.9161 80.3336 71.7897 81.8216 72.6296 82.8171C73.4692 83.813 74.9572 83.9397 75.9527 83.0995C77.0329 82.1889 78.5662 81.6672 80.1626 81.6672H80.1846C81.7896 81.6722 83.3289 82.2033 84.4084 83.1247C84.8524 83.5042 85.3967 83.6898 85.9382 83.6898Z" fill="#041578"/>
<path d="M67.5097 68.0991H67.4817C66.1789 68.1073 65.1315 69.1422 65.1245 70.4446C65.1173 71.7471 66.1814 72.8087 67.4839 72.8159H67.4971C68.7936 72.8159 69.8483 71.7685 69.8552 70.4704C69.8621 69.1679 68.8121 68.1064 67.5097 68.0991Z" fill="#041578"/>
<path d="M93.2872 72.8032C93.3048 72.8051 93.3231 72.8048 93.3407 72.8063C93.3985 72.8111 93.4561 72.8158 93.5152 72.8161H93.5284H93.5316C93.5334 72.8161 93.535 72.8158 93.5369 72.8158C93.6152 72.8155 93.6926 72.8117 93.769 72.8041C94.9601 72.685 95.89 71.68 95.89 70.4577C95.89 69.1782 94.8702 68.1389 93.5995 68.1028C93.58 68.1021 93.5608 68.0996 93.541 68.0996H93.5338C93.5331 68.0996 93.5322 68.0996 93.5316 68.0996H93.513H93.503C93.502 68.0996 93.5007 68.0996 93.4998 68.0996C92.2036 68.0996 91.1628 69.1471 91.1556 70.4451C91.1489 71.6702 92.0907 72.6818 93.2872 72.8032Z" fill="#041578"/>
<path d="M59.2097 11.174C59.6701 11.6347 60.2738 11.8649 60.8772 11.8649C61.4807 11.8649 62.0844 11.6347 62.5448 11.174L64.4513 9.26748L66.3578 11.174C66.8182 11.6344 67.4219 11.8649 68.0254 11.8649C68.6288 11.8649 69.2326 11.6347 69.6929 11.174C70.614 10.253 70.614 8.75964 69.6929 7.83892L67.7864 5.93239L69.6929 4.02587C70.614 3.10483 70.614 1.61149 69.6929 0.690775C68.7722 -0.230258 67.2789 -0.230258 66.3578 0.690775L64.4513 2.5973L62.5448 0.690775C61.6237 -0.230258 60.1304 -0.230258 59.2097 0.690775C58.2887 1.61181 58.2887 3.10515 59.2097 4.02587L61.1162 5.93239L59.2097 7.83892C58.2887 8.75996 58.2887 10.2533 59.2097 11.174Z" fill="#041578"/>
<path d="M42.4065 35.7721C48.3443 35.7721 53.175 30.9414 53.175 25.0033C53.175 19.0655 48.3443 14.2349 42.4065 14.2349C36.4687 14.2349 31.6381 19.0655 31.6381 25.0033C31.6381 30.9414 36.469 35.7721 42.4065 35.7721ZM42.4065 18.952C45.7435 18.952 48.4582 21.6666 48.4582 25.0036C48.4582 28.3406 45.7435 31.0556 42.4065 31.0556C39.0695 31.0556 36.3549 28.3409 36.3549 25.0036C36.3549 21.6666 39.0698 18.952 42.4065 18.952Z" fill="#041578"/>
<path d="M112.551 34.3166C113.011 34.777 113.615 35.0074 114.218 35.0074C114.822 35.0074 115.425 34.7773 115.886 34.3166L117.792 32.4101L119.699 34.3166C120.159 34.777 120.763 35.0074 121.366 35.0074C121.97 35.0074 122.574 34.7773 123.034 34.3166C123.955 33.3956 123.955 31.9022 123.034 30.9815L121.127 29.075L123.034 27.1684C123.955 26.2474 123.955 24.7541 123.034 23.8334C122.113 22.9123 120.62 22.9123 119.699 23.8334L117.792 25.7399L115.886 23.8334C114.965 22.9123 113.471 22.9123 112.551 23.8334C111.63 24.7544 111.63 26.2477 112.551 27.1684L114.457 29.075L112.551 30.9815C111.63 31.9025 111.63 33.3959 112.551 34.3166Z" fill="#041578"/>
<path d="M80.3705 33.9607H80.3778C81.6768 33.9607 82.7321 32.9095 82.7362 31.6092L82.7569 24.5865C82.7607 23.284 81.7082 22.225 80.4054 22.2212C80.4029 22.2212 80.4007 22.2212 80.3982 22.2212C79.0992 22.2212 78.0439 23.2724 78.0398 24.5727L78.0191 31.5954C78.0153 32.8975 79.0681 33.9566 80.3705 33.9607Z" fill="#041578"/>
<path d="M65.0434 26.4796C63.9261 27.1488 63.5629 28.5972 64.2321 29.7147L67.881 35.807C68.3231 36.545 69.1045 36.9538 69.9064 36.9538C70.3186 36.9538 70.7365 36.8456 71.1161 36.6182C72.2333 35.9491 72.5965 34.5007 71.9274 33.3831L68.2784 27.2909C67.609 26.1737 66.1606 25.8102 65.0434 26.4796Z" fill="#041578"/>
<path d="M89.6089 36.7071C89.9912 36.9391 90.4135 37.0495 90.8302 37.0495C91.6273 37.0495 92.405 36.6454 92.8487 35.9146L96.534 29.8425C97.2098 28.7291 96.8551 27.2785 95.7416 26.6027C94.6278 25.9273 93.1776 26.2817 92.5018 27.3952L88.8164 33.4672C88.1407 34.5807 88.4957 36.0313 89.6089 36.7071Z" fill="#041578"/>
<path d="M102.028 21.0656C107.012 21.0656 111.066 17.0107 111.066 12.0269C111.066 7.04315 107.012 2.98828 102.028 2.98828C97.0434 2.98828 92.9889 7.04315 92.9889 12.0269C92.9889 17.0107 97.0434 21.0656 102.028 21.0656ZM102.028 7.70508C104.411 7.70508 106.349 9.644 106.349 12.0269C106.349 14.4098 104.41 16.3488 102.028 16.3488C99.6446 16.3488 97.7057 14.4098 97.7057 12.0269C97.7057 9.644 99.6443 7.70508 102.028 7.70508Z" fill="#041578"/>
</g>
<defs>
<clipPath id="clip0_1875_48577">
<rect width="161" height="161" fill="white"/>
</clipPath>
</defs>
</svg>
