<svg width="25" height="25" viewBox="0 0 25 25" fill="none" xmlns="http://www.w3.org/2000/svg">
<path d="M20.8799 21.63C20.6799 21.63 20.4899 21.55 20.3499 21.41L13.9699 15.03C13.6799 14.74 13.6799 14.26 13.9699 13.97L21.7 6.24001C21.89 6.05001 22.1799 5.98001 22.4399 6.05001C22.6999 6.13001 22.8999 6.34001 22.9599 6.60001C23.1499 7.45001 23.2499 8.40001 23.2499 9.50001V15.5C23.2499 18.27 22.6699 20.14 21.4099 21.41C21.2699 21.55 21.0599 21.58 20.8799 21.63ZM15.5599 14.5L20.8199 19.76C21.4499 18.79 21.7499 17.41 21.7499 15.5V9.50001C21.7499 9.09001 21.7399 8.71001 21.7099 8.35001L15.5599 14.5Z" fill="#E6E8F2"/>
<path d="M6.76999 22.98C6.70999 22.98 6.66001 22.97 6.60001 22.96C3.29001 22.2 1.75 19.83 1.75 15.5V9.5C1.75 4.07 4.07 1.75 9.5 1.75H15.5C19.83 1.75 22.2 3.29001 22.96 6.60001C23.02 6.85001 22.94 7.12 22.76 7.3L7.29999 22.76C7.15999 22.9 6.96999 22.98 6.76999 22.98ZM9.5 3.25C4.89 3.25 3.25 4.89 3.25 9.5V15.5C3.25 18.97 4.21001 20.71 6.54001 21.4L21.39 6.55C20.71 4.22 18.96 3.25999 15.49 3.25999H9.5V3.25Z" fill="#E6E8F2"/>
<path d="M15.4999 23.2499H9.49989C8.39989 23.2499 7.45989 23.1599 6.59989 22.9599C6.32989 22.8999 6.11987 22.6999 6.04987 22.4399C5.96987 22.1799 6.04988 21.8999 6.23988 21.6999L13.9699 13.9699C14.2599 13.6799 14.7399 13.6799 15.0299 13.9699L21.4099 20.3499C21.5499 20.4899 21.6299 20.6799 21.6299 20.8799C21.6299 21.0799 21.5499 21.2699 21.4099 21.4099C20.1399 22.6699 18.2699 23.2499 15.4999 23.2499ZM8.34989 21.7099C8.70989 21.7399 9.08989 21.7499 9.49989 21.7499H15.4999C17.4199 21.7499 18.7899 21.4499 19.7599 20.8199L14.4999 15.5599L8.34989 21.7099Z" fill="#E6E8F2"/>
<path d="M9.61994 13.81C8.98994 13.81 8.35993 13.58 7.85993 13.11C6.26993 11.6 5.62996 9.94005 6.00996 8.32005C6.38996 6.66005 7.83994 5.54004 9.61994 5.54004C11.3999 5.54004 12.85 6.66005 13.23 8.32005C13.6 9.95005 12.9599 11.6 11.3699 13.11C10.8799 13.57 10.2499 13.81 9.61994 13.81ZM7.46995 8.65004C7.14995 10.01 8.06994 11.2301 8.89994 12.0201C9.30994 12.41 9.93994 12.41 10.3399 12.0201C11.1599 11.2401 12.0799 10.02 11.7699 8.65004C11.4999 7.46004 10.4399 7.03004 9.61994 7.03004C8.79994 7.03004 7.74995 7.46004 7.46995 8.65004Z" fill="#E6E8F2"/>
<path d="M9.6499 9.98999C9.0999 9.98999 8.6499 9.53999 8.6499 8.98999C8.6499 8.43999 9.0899 7.98999 9.6499 7.98999H9.65991C10.2099 7.98999 10.6599 8.43999 10.6599 8.98999C10.6599 9.53999 10.1999 9.98999 9.6499 9.98999Z" fill="#E6E8F2"/>
</svg>
