<svg width="20" height="20" viewBox="0 0 20 20" fill="none" xmlns="http://www.w3.org/2000/svg">
<path d="M3.33336 17.5C2.87502 17.5 2.48252 17.3366 2.15585 17.01C1.82919 16.6833 1.66613 16.2911 1.66669 15.8333V12.5H7.50002V14.1666H12.5V12.5H18.3334V15.8333C18.3334 16.2916 18.17 16.6841 17.8434 17.0108C17.5167 17.3375 17.1245 17.5005 16.6667 17.5H3.33336ZM9.16669 12.5V10.8333H10.8334V12.5H9.16669ZM1.66669 10.8333V6.66663C1.66669 6.20829 1.83002 5.81579 2.15669 5.48913C2.48336 5.16246 2.87558 4.99941 3.33336 4.99996H6.66669V3.33329C6.66669 2.87496 6.83002 2.48246 7.15669 2.15579C7.48336 1.82913 7.87558 1.66607 8.33335 1.66663H11.6667C12.125 1.66663 12.5175 1.82996 12.8442 2.15663C13.1709 2.48329 13.3339 2.87552 13.3334 3.33329V4.99996H16.6667C17.125 4.99996 17.5175 5.16329 17.8442 5.48996C18.1709 5.81663 18.3339 6.20885 18.3334 6.66663V10.8333H12.5V9.16663H7.50002V10.8333H1.66669ZM8.33335 4.99996H11.6667V3.33329H8.33335V4.99996Z" fill="#041578"/>
</svg>
