<svg width="20" height="20" viewBox="0 0 20 20" fill="none" xmlns="http://www.w3.org/2000/svg">
<path d="M5.00002 11.6667C5.66669 11.6667 6.2778 11.8472 6.83335 12.2083C7.38891 12.5694 7.79863 13.0625 8.06252 13.6875L8.27085 14.1667H8.79169C9.37502 14.1667 9.86113 14.3717 10.25 14.7817C10.6389 15.1917 10.8334 15.6811 10.8334 16.25C10.8334 16.8333 10.632 17.3264 10.2292 17.7292C9.82641 18.1319 9.33335 18.3333 8.75002 18.3333H5.00002C4.08335 18.3333 3.29863 18.0069 2.64585 17.3542C1.99308 16.7014 1.66669 15.9167 1.66669 15C1.66669 14.0694 1.99308 13.2811 2.64585 12.635C3.29863 11.9889 4.08335 11.6661 5.00002 11.6667ZM9.37502 2.5C9.12502 3.875 9.20141 5.21889 9.60419 6.53167C10.007 7.84444 10.7014 8.99361 11.6875 9.97917C12.6736 10.9653 13.8231 11.6597 15.1359 12.0625C16.4486 12.4653 17.7922 12.5417 19.1667 12.2917C18.8056 14.2639 17.8681 15.8925 16.3542 17.1775C14.8403 18.4625 13.0903 19.1256 11.1042 19.1667C11.5486 18.8056 11.8925 18.3714 12.1359 17.8642C12.3792 17.3569 12.5006 16.8189 12.5 16.25C12.5 15.3056 12.2047 14.4894 11.6142 13.8017C11.0236 13.1139 10.2703 12.7008 9.35419 12.5625C8.90974 11.7708 8.30224 11.1458 7.53169 10.6875C6.76113 10.2292 5.91724 10 5.00002 10C4.55558 10 4.12141 10.0556 3.69752 10.1667C3.27363 10.2778 2.87446 10.4444 2.50002 10.6667C2.5278 8.65278 3.18419 6.88194 4.46919 5.35417C5.75419 3.82639 7.38946 2.875 9.37502 2.5Z" fill="#E6E8F2"/>
</svg>
