<svg width="20" height="20" viewBox="0 0 20 20" fill="none" xmlns="http://www.w3.org/2000/svg">
<path d="M13.3333 18.9582H2.49999C1.69999 18.9582 1.04166 18.2998 1.04166 17.4998V6.6665C1.04166 2.98317 2.98332 1.0415 6.66666 1.0415H13.3333C17.0167 1.0415 18.9583 2.98317 18.9583 6.6665V13.3332C18.9583 17.0165 17.0167 18.9582 13.3333 18.9582ZM6.66666 2.2915C3.68332 2.2915 2.29166 3.68317 2.29166 6.6665V17.4998C2.29166 17.6165 2.38332 17.7082 2.49999 17.7082H13.3333C16.3167 17.7082 17.7083 16.3165 17.7083 13.3332V6.6665C17.7083 3.68317 16.3167 2.2915 13.3333 2.2915H6.66666Z" fill="#041578"/>
<path d="M14.1667 8.5415H5.83334C5.49168 8.5415 5.20834 8.25817 5.20834 7.9165C5.20834 7.57484 5.49168 7.2915 5.83334 7.2915H14.1667C14.5083 7.2915 14.7917 7.57484 14.7917 7.9165C14.7917 8.25817 14.5083 8.5415 14.1667 8.5415Z" fill="#041578"/>
<path d="M11.6667 12.7085H5.83334C5.49168 12.7085 5.20834 12.4252 5.20834 12.0835C5.20834 11.7418 5.49168 11.4585 5.83334 11.4585H11.6667C12.0083 11.4585 12.2917 11.7418 12.2917 12.0835C12.2917 12.4252 12.0083 12.7085 11.6667 12.7085Z" fill="#041578"/>
</svg>
