<svg width="17" height="17" viewBox="0 0 17 17" fill="none" xmlns="http://www.w3.org/2000/svg">
<path d="M12.4134 15.0798C12.2067 15.0798 12.0001 15.0265 11.8134 14.9132L9.14006 13.3265C8.86005 13.3198 8.58005 13.2998 8.31338 13.2598C8.13338 13.2332 7.98005 13.1132 7.91338 12.9398C7.84671 12.7665 7.88005 12.5798 8.00005 12.4398C8.44005 11.9265 8.66672 11.3132 8.66672 10.6598C8.66672 9.0465 7.24672 7.73315 5.50005 7.73315C4.84672 7.73315 4.22005 7.91318 3.69338 8.25985C3.54671 8.35318 3.36672 8.36651 3.20672 8.29317C3.05338 8.21984 2.94005 8.07315 2.92005 7.89982C2.90005 7.71315 2.88672 7.5265 2.88672 7.33317C2.88672 4.0265 5.75339 1.33984 9.27339 1.33984C12.7934 1.33984 15.6601 4.0265 15.6601 7.33317C15.6601 9.1465 14.82 10.8132 13.34 11.9532L13.5667 13.7665C13.6201 14.2199 13.42 14.6465 13.04 14.8932C12.8534 15.0132 12.6334 15.0798 12.4134 15.0798ZM9.26671 12.3198C9.36005 12.3132 9.45339 12.3399 9.53339 12.3932L12.3267 14.0532C12.4001 14.0998 12.4601 14.0798 12.5001 14.0532C12.5334 14.0332 12.5867 13.9798 12.5734 13.8865L12.3134 11.7798C12.2934 11.5932 12.3734 11.4132 12.52 11.3065C13.88 10.3532 14.6601 8.89982 14.6601 7.31982C14.6601 4.56649 12.2467 2.3265 9.27339 2.3265C6.41339 2.3265 4.06672 4.40652 3.89338 7.01986C4.39338 6.82652 4.93339 6.71985 5.49339 6.71985C7.79339 6.71985 9.66005 8.47982 9.66005 10.6465C9.66672 11.2332 9.52671 11.7998 9.26671 12.3198Z" fill="#3C4260"/>
<path d="M3.55318 15.6665C3.37985 15.6665 3.21318 15.6199 3.05984 15.5199C2.75984 15.3266 2.59985 14.9932 2.63985 14.6399L2.77318 13.6132C1.87318 12.8799 1.33984 11.7932 1.33984 10.6532C1.33984 9.3532 2.01985 8.13987 3.15985 7.41321C3.84652 6.96654 4.65984 6.72656 5.50651 6.72656C7.80651 6.72656 9.67318 8.48653 9.67318 10.6532C9.67318 11.5332 9.35318 12.3999 8.76651 13.0865C8.01318 13.9999 6.88651 14.5332 5.64651 14.5732L4.01985 15.5399C3.87318 15.6265 3.71318 15.6665 3.55318 15.6665ZM5.49985 7.72656C4.84651 7.72656 4.21984 7.90655 3.69318 8.25321C2.83984 8.79988 2.33318 9.6932 2.33318 10.6532C2.33318 11.5799 2.78652 12.4266 3.58652 12.9732C3.73985 13.0799 3.81985 13.2599 3.79985 13.4465L3.65318 14.5865L5.24651 13.6399C5.32651 13.5932 5.41318 13.5665 5.49985 13.5665C6.47985 13.5665 7.40652 13.1466 7.99318 12.4332C8.43318 11.9132 8.66651 11.2999 8.66651 10.6465C8.66651 9.03986 7.24651 7.72656 5.49985 7.72656Z" fill="#3C4260"/>
</svg>
