<svg width="20" height="20" viewBox="0 0 20 20" fill="none" xmlns="http://www.w3.org/2000/svg">
<path d="M12.9167 9.375H7.08334C6.74168 9.375 6.45834 9.09167 6.45834 8.75C6.45834 8.40833 6.74168 8.125 7.08334 8.125H12.9167C13.2583 8.125 13.5417 8.40833 13.5417 8.75C13.5417 9.09167 13.2583 9.375 12.9167 9.375Z" fill="#E6E8F2"/>
<path d="M13.3333 18.5999C13.05 18.5999 12.7667 18.5166 12.525 18.3582L8.97498 15.9915H5.83332C2.96666 15.9915 1.04166 14.0665 1.04166 11.1999V6.19987C1.04166 3.3332 2.96666 1.4082 5.83332 1.4082H14.1667C17.0333 1.4082 18.9583 3.3332 18.9583 6.19987V11.1999C18.9583 13.8499 17.3083 15.6999 14.7917 15.9582V17.1415C14.7917 17.6832 14.5 18.1749 14.025 18.4249C13.8083 18.5415 13.5667 18.5999 13.3333 18.5999ZM5.83332 2.64986C3.68332 2.64986 2.29166 4.04153 2.29166 6.19153V11.1915C2.29166 13.3415 3.68332 14.7332 5.83332 14.7332H9.16666C9.29166 14.7332 9.40833 14.7665 9.51667 14.8415L13.225 17.3082C13.3167 17.3665 13.4 17.3416 13.4417 17.3166C13.4833 17.2916 13.55 17.2415 13.55 17.1332V15.3582C13.55 15.0165 13.8333 14.7332 14.175 14.7332C16.325 14.7332 17.7167 13.3415 17.7167 11.1915V6.19153C17.7167 4.04153 16.325 2.64986 14.175 2.64986H5.83332Z" fill="#E6E8F2"/>
</svg>
