<svg width="20" height="20" viewBox="0 0 20 20" fill="none" xmlns="http://www.w3.org/2000/svg">
<path d="M11.8499 18.0249C10.8666 18.0249 9.47494 17.3333 8.37494 14.0249L7.77494 12.2249L5.97494 11.6249C2.67494 10.5249 1.98328 9.13327 1.98328 8.14994C1.98328 7.17494 2.67494 5.77494 5.97494 4.6666L13.0499 2.30827C14.8166 1.7166 16.2916 1.8916 17.1999 2.7916C18.1083 3.6916 18.2833 5.17494 17.6916 6.9416L15.3333 14.0166C14.2249 17.3333 12.8333 18.0249 11.8499 18.0249ZM6.36661 5.85827C4.04994 6.63327 3.22494 7.54994 3.22494 8.14994C3.22494 8.74994 4.04994 9.6666 6.36661 10.4333L8.46661 11.1333C8.64994 11.1916 8.79994 11.3416 8.85828 11.5249L9.55828 13.6249C10.3249 15.9416 11.2499 16.7666 11.8499 16.7666C12.4499 16.7666 13.3666 15.9416 14.1416 13.6249L16.4999 6.54994C16.9249 5.2666 16.8499 4.2166 16.3083 3.67494C15.7666 3.13327 14.7166 3.0666 13.4416 3.4916L6.36661 5.85827Z" fill="#F52424"/>
<path d="M8.42504 12.0001C8.26671 12.0001 8.10837 11.9417 7.98337 11.8167C7.74171 11.5751 7.74171 11.1751 7.98337 10.9334L10.9667 7.94175C11.2084 7.70008 11.6084 7.70008 11.85 7.94175C12.0917 8.18341 12.0917 8.58342 11.85 8.82508L8.86671 11.8167C8.75004 11.9417 8.58337 12.0001 8.42504 12.0001Z" fill="#F52424"/>
</svg>
