<svg width="16" height="16" viewBox="0 0 16 16" fill="none" xmlns="http://www.w3.org/2000/svg">
<path d="M5.05434 3.03345V11.0215C4.54169 10.5587 3.86083 10.2764 3.11488 10.2764C1.52415 10.2764 0.22998 11.5602 0.22998 13.1382C0.22998 14.7162 1.52415 16 3.11488 16C4.70363 16 5.99632 14.7194 5.99965 13.1442H5.99977V7.43616L14.2846 4.96643V9.09619C13.7719 8.63354 13.091 8.35107 12.3451 8.35107C10.7544 8.35107 9.46019 9.63489 9.46019 11.2129C9.46019 12.7909 10.7544 14.0747 12.3451 14.0747C13.9304 14.0747 15.221 12.7996 15.2297 11.2289H15.23V0L5.05434 3.03345Z" fill="#E6E8F2"/>
</svg>
