<svg width="14" height="15" viewBox="0 0 14 15" fill="none" xmlns="http://www.w3.org/2000/svg">
<g clip-path="url(#clip0_621_33522)">
<path d="M0.418195 7.3457L1.37453e-08 7.523C-2.733e-05 7.62898 0.0407422 7.73418 0.120285 7.81342L6.71141 14.3815C6.78833 14.4582 6.92046 14.5002 6.99803 14.5006C7.07684 14.5009 7.21161 14.4594 7.28987 14.3814L13.8799 7.80921C13.9592 7.73007 13.9999 7.62516 14.0001 7.51936L13.6364 7.34573C13.4337 7.34573 11.5505 7.34573 9.26242 7.34573L6.80887 8.13774L4.73378 7.34573C2.58141 7.3457 0.788703 7.3457 0.418195 7.3457Z" fill="#FFB739"/>
<path d="M13.9999 7.51939C13.9999 7.62507 13.9592 7.72996 13.8797 7.80915L7.28976 14.3814C7.21221 14.4589 7.07864 14.5004 7 14.5004V8.07597L9.26239 7.3457H13.6364L13.9999 7.51939Z" fill="#FF9441"/>
<path d="M4.73389 7.3457L7.00016 14.5004L9.26253 7.3457H4.73389Z" fill="#FF9441"/>
<path d="M9.26237 7.3457L7 14.5004V7.3457H9.26237Z" fill="#FF7149"/>
<path d="M13.9313 7.29131L11.7376 4.00451C11.7072 3.95907 11.6681 3.92046 11.6231 3.89065L11.4242 3.98614L7.3795 4.01135L7 3.82227L6.69331 4.01561L2.65768 4.04077L2.37606 3.89106C2.33136 3.92079 2.29239 3.95926 2.26209 4.00473L0.0685508 7.29566C0.0223672 7.36495 0 7.444 0 7.52261C0.794637 7.52239 12.9737 7.5192 14 7.51892C14.0001 7.44009 13.9776 7.36077 13.9313 7.29131Z" fill="#FFD17E"/>
<path d="M13.9999 7.519C13.4914 7.519 10.2436 7.5201 7 7.52092V3.82227L7.37961 4.01124L11.4243 3.98611L11.6231 3.89052C11.6682 3.92057 11.7072 3.95907 11.7375 4.0044L13.9314 7.2912C13.9778 7.36087 14.0002 7.44006 13.9999 7.519Z" fill="#FFB739"/>
<path d="M2.60277 3.82227C2.52084 3.82227 2.44226 3.8469 2.37598 3.89101L4.80563 7.52136H4.80591L6.9997 3.82227H2.60277Z" fill="#FFB739"/>
<path d="M9.19486 7.52018L11.6231 3.89057C11.557 3.84674 11.4787 3.82227 11.397 3.82227H7L9.19311 7.52021H9.19486V7.52018Z" fill="#FF9441"/>
<path d="M4.55042 10.3802C3.86477 10.3802 3.30693 9.82236 3.30693 9.13672C3.30693 8.9102 3.12329 8.72656 2.89678 8.72656C2.67026 8.72656 2.48662 8.9102 2.48662 9.13672C2.48662 9.81892 1.93217 10.3802 1.24316 10.3802C1.01665 10.3802 0.833008 10.5638 0.833008 10.7903C0.833008 11.0168 1.01665 11.2005 1.24316 11.2005C1.92881 11.2005 2.48662 11.7583 2.48662 12.4439C2.48662 12.6705 2.67026 12.8541 2.89678 12.8541C3.12329 12.8541 3.30693 12.6705 3.30693 12.4439C3.30693 11.7618 3.86133 11.2005 4.55042 11.2005C4.77693 11.2005 4.96057 11.0168 4.96057 10.7903C4.96057 10.5638 4.77693 10.3802 4.55042 10.3802Z" fill="#FFD17E"/>
<path d="M10.837 2.15361C10.1514 2.15361 9.59355 1.5958 9.59355 0.910156C9.59355 0.683641 9.40991 0.5 9.1834 0.5C8.95688 0.5 8.77324 0.683641 8.77324 0.910156C8.77324 1.5958 8.21546 2.15361 7.52979 2.15361C7.30327 2.15361 7.11963 2.33725 7.11963 2.56377C7.11963 2.79029 7.30327 2.97393 7.52979 2.97393C8.21543 2.97393 8.77324 3.53174 8.77324 4.21738C8.77324 4.4439 8.95688 4.62754 9.1834 4.62754C9.40991 4.62754 9.59355 4.4439 9.59355 4.21738C9.59355 3.53174 10.1513 2.97393 10.837 2.97393C11.0635 2.97393 11.2472 2.79029 11.2472 2.56377C11.2472 2.33725 11.0635 2.15361 10.837 2.15361Z" fill="#FFB739"/>
</g>
<defs>
<clipPath id="clip0_621_33522">
<rect width="14" height="14" fill="white" transform="translate(0 0.5)"/>
</clipPath>
</defs>
</svg>
